<?xml version="1.0" standalone="no"?>
<!DOCTYPE svg PUBLIC "-//W3C//DTD SVG 1.1//EN" "http://www.w3.org/Graphics/SVG/1.1/DTD/svg11.dtd" >
<!--
2013-9-30: Created.
-->
<svg>
<metadata>
Created by iconfont
</metadata>
<defs>

<font id="iconfont" horiz-adv-x="1024" >
  <font-face
    font-family="iconfont"
    font-weight="500"
    font-stretch="normal"
    units-per-em="1024"
    ascent="896"
    descent="-128"
  />
    <missing-glyph />
    
    <glyph glyph-name="s-back" unicode="&#58923;" d="M775.168 875.52c-19.456 19.456-55.808 18.432-76.288-2.048L249.344 424.448c-20.48-20.48-21.504-56.832-2.048-76.288l1.024-1.024 2.56-2.56 449.536-449.536c20.48-20.48 56.32-22.016 76.288-2.048 19.456 19.456 18.432 55.808-2.048 76.288L358.912 385.024 773.12 799.232c20.992 20.48 22.528 56.32 2.048 76.288z"  horiz-adv-x="1024" />

    
    <glyph glyph-name="s-up" unicode="&#58922;" d="M96.768 122.88l414.208 414.208 415.744-415.744c20.48-20.48 56.832-21.504 76.288-2.048 19.968 19.968 18.432 55.808-2.048 76.288L551.424 645.12l-2.56 2.56-1.024 1.024c-19.456 19.456-55.808 18.432-76.288-2.048L22.528 197.12c-20.48-20.48-21.504-56.832-2.048-76.288 19.968-20.48 55.808-18.944 76.288 2.048z"  horiz-adv-x="1024" />

    
    <glyph glyph-name="claim-form" unicode="&#58886;" d="M771.584 492.032c-11.264 14.336-23.552 27.648-35.84 40.96-31.744 34.816-61.44 68.096-64 96.768 3.072 7.168 16.896 24.576 26.624 36.352 32.768 41.472 70.144 88.576 38.4 120.32-23.04 23.04-79.872 61.44-202.752 61.44-92.672 0-160.768-20.48-202.24-61.44-32.256-31.744 5.12-78.336 37.888-119.808 9.216-11.776 23.552-29.696 26.624-36.864-3.584-26.112-34.304-57.856-64-88.064-15.872-15.872-31.744-32.768-46.08-50.176-75.776-92.16-111.616-180.224-110.08-268.288 5.12-234.496 220.672-269.824 348.672-269.824 230.912 0 350.208 91.136 353.792 270.848 2.048 89.6-32.768 177.152-107.008 267.776z m-246.784-493.056c-198.144 0-300.032 75.776-303.104 224.768-1.536 76.8 30.72 155.136 99.328 239.616 12.8 15.872 28.16 31.744 43.008 46.592 37.888 38.912 73.728 75.264 77.312 118.784 1.536 17.92-11.776 34.816-36.864 66.56-12.8 15.872-38.4 48.128-39.936 60.416 40.448 38.4 113.664 46.592 168.96 46.592 106.496 0 152.576-31.232 168.96-46.592-1.536-12.8-27.648-45.056-39.936-61.44-24.576-30.72-37.376-47.616-36.352-65.024 2.048-45.056 37.888-84.992 76.288-126.976 11.776-12.8 23.552-26.112 34.304-39.424 66.56-81.92 98.304-159.744 96.768-238.08-1.536-55.296-5.12-225.792-308.736-225.792zM546.816 328.192c-4.608 3.072-8.704 5.632-12.288 8.192-21.504 15.36-34.816 30.208-36.864 42.496-0.512 3.584-1.024 9.728 5.12 18.432 6.144 8.704 15.872 13.312 28.16 13.824 18.432 1.024 36.352-6.656 41.472-12.8 8.704-9.216 23.04-9.728 32.256-1.024 9.216 8.704 6.144 23.04-2.048 32.256-12.8 13.824-26.624 23.552-61.44 26.624v12.8c0 12.8-9.728 23.04-22.528 23.04-12.8 0-22.528-10.24-22.528-23.04v-17.408c-12.288-5.632-24.064-14.848-33.28-27.136-11.776-16.384-14.848-34.304-11.776-52.736 4.096-25.088 23.552-49.664 56.32-72.704 4.096-3.072 9.216-6.144 14.336-9.216 45.056-28.672 56.32-43.52 45.568-63.488-5.632-10.24-15.872-17.408-29.184-19.456-17.92-2.56-36.864 4.096-51.712 19.456-8.704 8.704-23.04 9.216-32.256 0-8.704-8.704-12.288-23.552-3.072-32.256 13.824-13.824 32.256-23.552 44.544-29.184v-38.4c0-12.8 9.728-23.04 22.528-23.04 12.8 0 22.528 10.24 22.528 23.04v35.328c34.816 4.608 51.712 19.968 64 43.008 33.28 62.976-27.136 103.936-57.856 123.392z"  horiz-adv-x="1024" />

    
    <glyph glyph-name="control-over-invoices" unicode="&#58887;" d="M703.488 349.696H609.28c-12.288 0-23.04-10.24-23.04-23.04 0-12.288 10.24-23.04 23.04-23.04h94.208c12.8 0 23.04 10.24 23.04 23.04s-10.752 23.04-23.04 23.04zM749.056 447.488H609.28c-12.288 0-23.04-10.24-23.04-23.04s10.24-22.528 23.04-23.04H749.568c12.8 0 22.528 10.24 22.528 23.04s-10.752 23.04-23.04 23.04zM465.92 389.12c9.216 0 16.384 7.168 16.384 16.384s-7.168 16.384-16.384 16.384H389.632l87.04 74.752c6.144 6.144 7.168 15.872 1.536 22.528-5.632 7.168-16.384 8.192-23.04 2.56L367.616 446.976 279.552 522.24c-6.656 5.632-16.384 4.608-22.528-1.536-6.144-6.656-5.632-16.896 1.024-23.552l87.04-74.752H268.8c-9.216 0-16.384-7.168-16.384-16.384s7.168-16.384 16.384-16.384h81.92v-46.08h-81.92c-9.216 0-16.384-7.168-16.384-16.384 0-9.216 7.168-16.384 16.384-16.384h81.92v-51.712c0-9.216 7.168-16.384 16.384-16.384s16.384 7.168 16.384 16.384v51.712h81.92c9.216 0 16.384 7.168 16.384 16.384 0 9.216-7.168 16.384-16.384 16.384H384v46.08h81.92zM786.944 699.392h-28.16c-10.752 0-19.968-7.168-22.016-17.408-3.072-12.8-12.8-22.528-25.6-25.6-18.944-4.608-37.376 7.168-41.984 25.6-2.048 10.24-11.776 17.408-22.016 17.408h-71.68c-10.752 0-19.968-7.168-22.016-17.408-3.072-12.8-12.8-22.528-25.6-25.6-18.944-4.608-37.376 7.168-41.984 25.6-2.048 10.24-11.776 17.408-22.016 17.408H384.512c-10.752 0-19.968-7.168-22.016-17.408-3.072-12.8-12.8-22.528-25.6-25.6-18.944-4.608-37.376 7.168-41.984 25.6-2.048 10.24-11.776 17.408-22.016 17.408H235.52c-41.472 0-74.752-33.792-75.264-75.264v-466.432c0-41.472 33.792-74.752 75.264-75.264h551.424c41.472 0 74.752 33.792 75.264 75.264v141.312c0 1.024 0.512 2.048 0.512 3.072V624.64c-1.024 41.472-34.304 74.752-75.776 74.752z m29.184-371.712v-169.472c0-16.384-12.8-29.184-29.184-29.184H236.544c-16.384 0-29.184 12.8-29.184 29.184V624.64v0.512c0 16.384 13.312 29.184 29.184 29.184h21.504c12.8-27.648 40.448-45.056 71.68-45.056s58.88 18.432 71.68 45.056h46.08c12.8-27.648 40.448-45.056 71.68-45.056s58.88 18.432 71.68 45.056h39.936c12.8-27.648 40.448-45.056 71.68-45.056s58.88 18.432 71.68 45.056h12.8c16.384 0 29.184-13.312 29.184-29.184V327.68z"  horiz-adv-x="1024" />

    
    <glyph glyph-name="application-for-extension-of-insurance" unicode="&#58888;" d="M512 582.656c-120.832 0-219.648-98.304-219.648-219.648S391.168 143.36 512 143.36s219.648 98.304 219.648 219.648-98.816 219.648-219.648 219.648z m0-394.24c-96.256 0-174.592 78.336-174.592 174.592S415.744 537.6 512 537.6s174.592-78.336 174.592-174.592-78.336-174.592-174.592-174.592zM625.152 324.096l-91.136 52.224V466.944c0 12.288-10.24 22.528-22.528 22.528s-22.528-10.24-22.528-22.528v-116.736l114.176-65.024c4.096-2.048 7.68-3.072 10.752-3.072 8.192 0 15.872 4.608 19.968 11.776 5.632 10.752 1.536 24.064-8.704 30.208zM657.92 617.472c-4.608 4.608-10.24 6.656-16.384 6.656-5.632 0-11.264-2.56-14.848-6.656-4.608-4.608-7.168-10.24-6.656-16.384 0-5.632 2.56-11.264 6.656-14.848l82.432-82.432c4.096-4.096 9.728-6.656 15.872-6.656s11.776 2.56 15.36 6.656c4.096 4.096 6.656 9.216 7.168 15.36 0 6.144-2.048 11.776-6.656 16.384l-82.944 81.92zM314.88 502.784l82.944 82.944c4.608 4.608 7.168 10.24 6.656 16.384 0 5.632-2.56 11.264-6.656 14.848-4.608 4.608-10.24 6.656-16.384 6.656-5.632 0-11.264-2.56-14.848-6.656L283.648 534.528c-4.608-4.608-7.168-10.24-6.656-16.384 0-5.632 2.56-11.264 6.656-14.848 4.096-4.096 9.728-6.656 15.872-6.656 5.12-0.512 10.24 1.536 15.36 6.144zM909.824 821.248c-13.824 13.824-32.256 21.504-51.712 21.504h-7.168c-26.112 0-50.688-14.848-65.536-40.448-7.168-12.288-19.968-19.456-33.792-19.456-11.776 0-23.04 5.12-30.208 14.336-24.064 29.184-55.808 45.568-89.6 45.568-33.28 0-65.024-16.384-89.088-45.568-7.68-9.216-18.432-14.336-30.208-14.336-11.776 0-23.04 5.12-30.208 14.336-24.064 29.184-55.808 45.568-89.088 45.568S327.68 826.88 303.616 797.696C295.936 788.48 285.184 783.36 273.408 783.36c-13.824 0-27.136 7.68-33.792 19.456-14.848 25.088-39.424 40.448-65.536 40.448h-7.68c-40.448 0-73.216-32.768-73.216-73.216v-772.096c0-40.448 32.768-73.216 73.216-73.216H174.08c26.112 0 50.688 14.848 65.536 40.448 7.168 12.288 19.968 19.456 33.792 19.456 11.776 0 23.04-5.12 30.208-14.336 24.064-29.184 55.808-45.568 89.088-45.568s65.024 16.384 89.088 45.568c7.68 9.216 18.432 14.336 30.208 14.336s23.04-5.12 30.208-14.336c24.064-29.184 55.808-45.568 89.6-45.568 33.28 0 65.024 16.384 89.088 45.568 7.68 9.216 18.432 14.336 30.208 14.336 13.824 0 27.136-7.68 33.792-19.456 14.848-25.088 39.424-40.448 65.536-40.448h7.168c40.448 0 73.216 32.768 73.216 73.216V769.536c0.512 19.456-6.656 37.888-20.992 51.712z m-19.456-824.32c0-17.92-14.336-32.256-32.256-32.256h-7.168c-11.776 0-22.528 7.168-30.208 19.968-14.336 24.576-40.96 39.936-69.12 39.936-24.064 0-46.592-10.752-61.952-29.184-16.384-19.456-36.864-30.72-57.856-30.72-20.992 0-41.472 10.752-57.344 30.72-15.36 18.432-37.888 29.184-61.952 29.184-24.576 0.512-47.104-10.24-62.464-29.184-16.384-19.456-36.352-30.72-57.344-30.72s-41.472 10.752-57.344 30.72c-15.36 18.432-37.888 29.184-61.952 29.184-28.16 0-54.784-15.36-69.12-39.936-7.68-12.8-18.432-19.968-30.208-19.968h-7.68c-17.92 0-32.256 14.336-32.256 32.256V769.536c0 17.92 14.336 32.256 32.256 32.256H174.08c11.776 0 22.528-7.168 30.208-19.968 14.336-24.576 40.96-39.936 69.12-39.936 24.064 0 46.592 10.752 61.952 29.184 16.384 19.456 36.352 30.72 57.344 30.72s41.472-10.752 57.344-30.72c15.36-18.432 37.888-29.184 61.952-29.184s46.592 10.752 61.952 29.184c16.384 19.456 36.864 30.72 57.856 30.72 20.992 0 41.472-10.752 57.344-30.72 15.36-18.432 37.888-29.184 61.952-29.184 28.16 0 54.784 15.36 69.12 39.936 7.68 12.8 18.432 19.968 30.208 19.968h7.168c8.704 0 16.896-3.584 23.04-9.728s9.728-14.336 9.728-23.04v-772.096z"  horiz-adv-x="1024" />

    
    <glyph glyph-name="diagnosis" unicode="&#58889;" d="M820.736 808.448H202.24c-34.816 0-63.488-30.208-63.488-67.072v-752.64c0-23.04 11.264-44.544 29.696-56.832 10.24-7.168 22.016-10.24 33.792-10.24 7.68 0 15.872 1.536 23.04 4.608L504.32 40.96c4.608 2.048 10.24 2.048 14.848 0l279.04-114.688c18.944-7.68 39.936-5.632 56.832 5.632 18.432 12.288 29.696 33.792 29.696 56.832v752.64c0 36.864-28.672 67.072-64 67.072z m23.04-819.712c-0.512-9.216-4.608-17.92-11.776-22.528-3.584-2.048-10.24-5.632-18.432-2.048l-279.04 114.688a59.904 59.904 0 0 1-46.08 0L209.92-35.84c-8.192-3.584-15.36 0-18.432 2.048-7.168 4.608-11.264 13.312-11.264 22.528v752.64c0 14.336 10.24 26.112 22.528 26.112h619.008c12.288 0 22.528-11.776 22.528-26.112v-752.64zM396.8 651.776h230.912c11.776 0 20.992 9.216 20.992 20.992s-9.216 20.992-20.992 20.992H396.8c-11.776 0-20.992-9.216-20.992-20.992s9.216-20.992 20.992-20.992zM758.272 407.04h-69.12c-8.704 0-15.872-5.12-18.944-13.312l-38.912-102.4-143.36 229.888c-3.584 6.144-10.24 9.728-16.896 9.728-6.656 0-13.312-3.584-17.408-9.216L366.08 389.12H265.728c-11.264 0-20.48-9.216-20.48-20.48s9.216-20.48 20.48-20.48h111.616c6.656 0 13.312 3.584 16.896 9.216l75.776 115.2 147.968-237.568c3.584-6.144 10.24-9.728 17.408-9.728h2.048c7.68 0.512 14.336 5.632 17.408 13.312l48.64 127.488h54.784c11.264 0 20.48 9.216 20.48 20.48s-9.216 20.48-20.48 20.48z"  horiz-adv-x="1024" />

    
    <glyph glyph-name="help-feedback" unicode="&#58890;" d="M861.696 818.176h-293.888c-38.4 0-71.68-23.552-85.504-57.344-15.872 7.68-32.256 13.312-49.152 16.896-69.632 15.36-140.288-1.024-194.56-44.544C184.832 689.664 153.6 625.152 153.6 555.52c0-46.08 13.824-90.624 39.936-128.512 9.216-13.824 19.968-26.112 32.256-37.376l-48.128-27.136C112.64 326.656 71.68 257.536 71.68 182.272v-126.464c0-67.072 54.272-121.344 121.344-121.344h381.44c67.072 0 121.344 54.272 121.344 121.344v127.488c0 77.312-42.496 147.456-110.592 183.296l-46.592 24.576c10.24 9.728 18.944 19.968 27.136 30.72h40.96l-4.608-15.872v-0.512c-4.608-16.896 1.024-34.304 13.824-46.592 8.192-7.168 18.944-11.264 30.208-11.264 6.144 0 12.288 1.536 18.944 4.096 0.512 0 0.512 0 1.024 0.512l144.384 69.632h52.224c51.2 0 92.672 41.472 92.672 92.672V726.016c-1.024 50.688-42.496 92.16-93.696 92.16zM357.888-25.088c0.512 1.024 0.512 2.048 0.512 3.072l26.112 244.736h4.096l26.112-245.248c0-1.024 0.512-1.536 0.512-2.56H357.888zM913.408 514.56c0-28.672-23.04-51.712-51.712-51.712h-56.832c-3.072 0-6.144-0.512-8.704-2.048l-147.968-71.68c-1.536-0.512-2.56-0.512-2.56-0.512-1.536 0-2.048 0.512-2.56 0.512-1.024 1.024-2.56 3.072-2.048 5.632l12.288 41.472c2.048 6.144 0.512 12.8-3.072 17.92s-9.728 8.192-16.384 8.192h-71.68c-0.512 0-1.024 0.512-1.536 0.512-8.704 2.048-17.408-1.536-22.016-8.704-12.8-19.456-29.184-36.352-48.64-51.2-5.632-4.096-8.704-10.752-8.192-17.92s4.608-13.312 10.752-16.384l73.728-38.912c54.784-28.672 89.088-84.992 89.088-147.456v-127.488c0-44.544-35.84-80.384-80.384-80.384H454.656c0.512 2.048 1.024 4.096 0.512 6.144l-28.16 262.144c6.656 8.704 10.24 19.456 10.24 30.72 0 28.672-23.552 52.224-52.224 52.224S332.8 302.08 332.8 273.408c0-13.312 5.12-25.6 13.312-34.816l-27.648-257.024c0-2.56 0-5.12 0.512-7.168H193.024C148.48-25.6 112.64 10.24 112.64 54.784v126.464c0 60.416 32.256 115.712 84.992 144.384l74.24 41.984c6.144 3.584 10.24 9.728 10.24 16.896s-3.072 13.824-8.704 17.92c-18.432 13.312-34.304 29.184-46.08 47.104C205.824 481.28 194.56 517.632 194.56 555.52 194.56 612.352 220.16 665.6 264.704 701.44c33.28 26.624 74.752 40.96 117.76 40.96 14.336 0 28.16-1.536 42.496-4.608 20.992-4.608 40.96-12.8 60.416-25.088 6.144-4.096 13.824-4.608 20.48-1.024 6.656 3.072 10.752 9.728 11.264 17.408 1.536 27.136 24.064 48.64 51.2 48.64h293.888c28.672 0 51.712-23.04 51.712-51.2v-211.968zM468.48 228.864c0-10.752 9.216-19.968 19.968-19.968h51.2c10.752 0 19.968 9.216 19.968 19.968 0 10.752-9.216 19.968-19.968 19.968h-51.2c-10.752 0-19.968-9.216-19.968-19.968zM561.664 697.344c-7.168 8.704-19.968 10.24-28.672 3.584-8.704-7.168-10.24-19.968-3.584-28.672 16.896-21.504 28.672-46.08 34.816-72.192 7.68-34.304 6.656-68.096-3.584-100.352-3.584-10.752 2.56-22.528 13.312-25.6 2.048-0.512 4.096-1.024 6.144-1.024 8.704 0 16.896 5.632 19.456 14.336 12.288 38.912 13.824 80.896 4.608 121.856-7.68 31.232-22.528 61.952-42.496 88.064zM616.109174 604.848796a25.088 25.088 0 1 1 35.47917 35.480409 25.088 25.088 0 1 1-35.47917-35.480409ZM703.149174 604.848796a25.088 25.088 0 1 1 35.47917 35.480409 25.088 25.088 0 1 1-35.47917-35.480409ZM790.189174 604.848796a25.088 25.088 0 1 1 35.47917 35.480409 25.088 25.088 0 1 1-35.47917-35.480409Z"  horiz-adv-x="1024" />

    
    <glyph glyph-name="maintenance-sheet" unicode="&#58891;" d="M249.856 721.92h148.992c12.8 0 23.04 10.24 23.04 23.04s-10.24 23.04-23.04 23.04H249.856c-12.8 0-23.04-10.24-23.04-23.04s10.24-23.04 23.04-23.04zM815.616 366.08l-318.464 296.96c-10.24 9.728-23.552 14.848-37.376 14.848H245.76c-30.208 0-54.784-24.576-54.784-54.784v-565.76c0-30.208 24.576-54.784 54.784-54.784h532.48c30.208 0 54.784 24.576 54.784 54.784v269.312c0 14.848-6.656 29.184-17.408 39.424z m-28.672-309.248c0-5.12-4.096-9.216-9.216-9.216H245.76c-5.12 0-9.216 4.096-9.216 9.216V623.104c0 5.12 4.096 9.216 9.216 9.216h213.504c2.048 0 4.608-1.024 6.144-2.56l318.464-296.96c2.048-1.536 3.072-4.096 3.072-6.656v-269.312zM500.736 517.632c-9.216 8.704-23.552 8.192-32.256-1.024-8.704-9.216-8.192-23.552 1.024-32.256l183.296-171.008c4.608-4.096 10.24-6.144 15.872-6.144 6.144 0 12.288 2.56 16.896 7.168 8.704 9.216 8.192 23.552-1.024 32.256L500.736 517.632z"  horiz-adv-x="1024" />

    
    <glyph glyph-name="maintenance-pre-application" unicode="&#58892;" d="M778.752 167.936H237.056c-11.776 0-20.992-9.216-20.992-20.992s9.216-20.992 20.992-20.992H778.24c11.776 0 20.992 9.216 20.992 20.992s-9.216 20.992-20.48 20.992zM905.216 826.368c-13.824 13.824-32.256 21.504-51.712 21.504h-7.168c-26.112 0-50.688-14.848-65.536-40.448-7.168-12.288-19.968-19.456-33.792-19.456-11.776 0-23.04 5.12-30.208 14.336-24.064 29.184-55.808 45.568-89.6 45.568-33.28 0-65.024-16.384-89.088-45.568-7.68-9.216-18.432-14.336-30.208-14.336s-23.04 5.12-30.208 14.336c-24.064 29.184-55.808 45.568-89.088 45.568s-65.536-15.872-89.6-45.056C291.328 793.6 280.576 788.48 268.8 788.48c-13.824 0-27.136 7.68-33.792 19.456-14.848 25.088-39.424 40.448-65.536 40.448h-7.68c-40.448 0-73.216-32.768-73.216-73.216v-772.096c0-40.448 32.768-73.216 73.216-73.216h7.68c26.112 0 50.688 14.848 65.536 40.448 7.168 12.288 19.968 19.456 33.792 19.456 11.776 0 23.04-5.12 30.208-14.336 24.064-29.184 55.808-45.568 89.088-45.568s65.024 16.384 89.088 45.568c7.68 9.216 18.432 14.336 30.208 14.336 11.776 0 23.04-5.12 30.208-14.336 24.064-29.184 55.808-45.568 89.6-45.568 33.28 0 65.024 16.384 89.088 45.568 7.68 9.216 18.432 14.336 30.208 14.336 13.824 0 27.136-7.68 33.792-19.456 14.848-25.088 39.424-40.448 65.536-40.448h7.168c40.448 0 73.216 32.768 73.216 73.216V774.656c0.512 19.456-6.656 37.888-20.992 51.712z m-19.456-824.32c0-17.92-14.336-32.256-32.256-32.256h-7.168c-11.776 0-22.528 7.168-30.208 19.968-14.336 24.576-40.96 39.936-69.12 39.936-24.064 0-46.592-10.752-61.952-29.184-16.384-19.456-36.864-30.72-57.856-30.72-20.992 0-41.472 10.752-57.344 30.72-15.36 18.432-37.888 29.184-61.952 29.184-24.576 0.512-47.104-10.24-62.464-29.184-16.384-19.456-36.352-30.72-57.344-30.72s-41.472 10.752-57.344 30.72c-15.36 18.432-37.888 29.184-61.952 29.184-28.16 0-54.784-15.36-69.12-39.936-7.68-12.8-18.432-19.968-30.208-19.968h-7.68c-17.92 0-32.256 14.336-32.256 32.256V774.656c0 17.92 14.336 32.256 32.256 32.256h7.68c11.776 0 22.528-7.168 30.208-19.968 14.336-24.576 40.96-39.936 69.12-39.936 24.064 0 46.592 10.752 61.952 29.184 16.384 19.456 36.352 30.72 57.344 30.72s41.472-10.752 57.344-30.72c15.36-18.432 37.888-29.184 61.952-29.184 24.064 0 46.592 10.752 61.952 29.184 16.384 19.456 36.864 30.72 57.856 30.72s41.472-10.752 57.344-30.72c15.36-18.432 37.888-29.184 61.952-29.184 28.16 0 54.784 15.36 69.12 39.936 7.68 12.8 18.432 19.968 30.208 19.968h7.168c8.704 0 16.896-3.584 23.04-9.728 6.144-6.144 9.728-14.336 9.728-23.04v-772.096zM377.344 610.304h73.728c10.752 0 18.944 8.704 18.944 18.944 0 10.752-8.704 18.944-18.944 18.944H377.344c-10.752 0-18.944-8.704-18.944-18.944s8.704-18.944 18.944-18.944zM375.296 253.44h264.192c19.456 0 34.816 15.872 34.816 34.816V421.888c0 9.216-4.096 18.432-11.264 25.088L505.344 594.432C498.688 600.576 490.496 604.16 481.28 604.16H375.296c-19.456 0-34.816-15.872-34.816-34.816v-280.576c0-19.456 15.872-35.328 34.816-35.328z m3.072 312.32h101.376l156.16-145.408v-129.024H378.368V565.76zM507.392 522.24c-3.584 3.584-8.704 5.12-13.824 5.12-5.12 0-9.728-2.048-13.312-6.144-3.584-3.584-5.12-8.704-5.12-13.824 0-5.12 2.048-9.728 6.144-13.312L572.416 409.6c3.584-3.072 8.192-5.12 12.8-5.12 5.12 0 10.24 2.048 13.824 6.144 3.584 3.584 5.12 8.704 5.12 13.824 0 5.12-2.048 9.728-6.144 13.312L507.392 522.24z"  horiz-adv-x="1024" />

    
    <glyph glyph-name="misjudgment-sheet" unicode="&#58893;" d="M287.744 212.992h449.024c11.776 0 20.992 9.216 20.992 20.992s-9.216 20.992-20.992 20.992H287.744c-11.776 0-20.992-9.216-20.992-20.992s9.728-20.992 20.992-20.992zM783.36 142.336H241.664c-11.776 0-20.992-9.216-20.992-20.992s9.216-20.992 20.992-20.992h541.184c11.776 0 20.992 9.216 20.992 20.992s-9.216 20.992-20.48 20.992zM909.824 800.768c-13.824 13.824-32.256 21.504-51.712 21.504h-7.168c-26.112 0-50.688-14.848-65.536-40.448-7.168-12.288-19.968-19.456-33.792-19.456-11.776 0-23.04 5.12-30.208 14.336-24.064 29.184-55.808 45.568-89.6 45.568-33.28 0-65.024-16.384-89.088-45.568-7.68-9.216-18.432-14.336-30.208-14.336s-23.04 5.12-30.208 14.336c-24.064 29.184-55.808 45.568-89.088 45.568S327.68 806.4 303.616 777.216C295.936 768 285.184 762.88 273.408 762.88c-13.824 0-27.136 7.68-33.792 19.456-14.848 25.088-39.424 40.448-65.536 40.448h-7.68c-40.448 0-73.216-32.768-73.216-73.216v-772.096c0-40.448 32.768-73.216 73.216-73.216H174.08c26.112 0 50.688 14.848 65.536 40.448 7.168 12.288 19.968 19.456 33.792 19.456 11.776 0 23.04-5.12 30.208-14.336 24.064-29.184 55.808-45.568 89.088-45.568s65.024 16.384 89.088 45.568c7.68 9.216 18.432 14.336 30.208 14.336s23.04-5.12 30.208-14.336c24.064-29.184 55.808-45.568 89.6-45.568 33.28 0 65.024 16.384 89.088 45.568 7.68 9.216 18.432 14.336 30.208 14.336 13.824 0 27.136-7.68 33.792-19.456 14.848-25.088 39.424-40.448 65.536-40.448h7.168c40.448 0 73.216 32.768 73.216 73.216V749.056c0.512 19.456-6.656 37.888-20.992 51.712z m-19.456-824.32c0-17.92-14.336-32.256-32.256-32.256h-7.168c-11.776 0-22.528 7.168-30.208 19.968-14.336 24.576-40.96 39.936-69.12 39.936-24.064 0-46.592-10.752-61.952-29.184-16.384-19.456-36.864-30.72-57.856-30.72-20.992 0-41.472 10.752-57.344 30.72-15.36 18.432-37.888 29.184-61.952 29.184-24.576 0.512-47.104-10.24-62.464-29.184-16.384-19.456-36.352-30.72-57.344-30.72s-41.472 10.752-57.344 30.72c-15.36 18.432-37.888 29.184-61.952 29.184-28.16 0-54.784-15.36-69.12-39.936-7.68-12.8-18.432-19.968-30.208-19.968h-7.68c-17.92 0-32.256 14.336-32.256 32.256V749.056c0 17.92 14.336 32.256 32.256 32.256H174.08c11.776 0 22.528-7.168 30.208-19.968 14.336-24.576 40.96-39.936 69.12-39.936 24.064 0 46.592 10.752 61.952 29.184 16.384 19.456 36.352 30.72 57.344 30.72s41.472-10.752 57.344-30.72c15.36-18.432 37.888-29.184 61.952-29.184s46.592 10.752 61.952 29.184c16.384 19.456 36.864 30.72 57.856 30.72 20.992 0 41.472-10.752 57.344-30.72 15.36-18.432 37.888-29.184 61.952-29.184 28.16 0 54.784 15.36 69.12 39.936 7.68 12.8 18.432 19.968 30.208 19.968h7.168c8.704 0 16.896-3.584 23.04-9.728 6.144-6.144 9.728-14.336 9.728-23.04v-772.096zM527.872 413.184l8.192 225.28h-48.128l8.192-225.28zM512 301.056c17.92 0 32.256 14.336 32.256 32.256s-14.336 32.256-32.256 32.256-32.256-14.336-32.256-32.256 14.336-32.256 32.256-32.256z"  horiz-adv-x="1024" />

    
    <glyph glyph-name="no-return" unicode="&#58894;" d="M941.568 471.04L849.92 521.216c-2.048 1.024-2.048 3.072-2.048 3.584 0 0.512 0 2.56 2.048 3.584l91.648 49.664c4.608 2.048 9.728 7.168 9.728 16.896 0 7.68-3.584 13.312-9.728 16.896l-292.864 153.6c-1.024 0.512-2.56 1.024-4.096 1.536-4.608 1.024-8.704 1.024-13.312 0-1.536-0.512-2.56-1.024-4.096-1.536l-113.664-61.952c-1.024-0.512-2.56-0.512-4.096 0l-112.64 61.44c-1.536 0.512-2.56 1.024-4.096 1.536-4.608 1.024-8.704 1.024-13.312 0-1.536 0-2.56-0.512-4.096-1.536l-292.864-153.6c-4.608-2.048-9.728-7.168-9.728-16.896 0-7.68 3.584-13.312 9.728-16.896L174.08 527.872c2.048-1.024 2.048-3.072 2.048-3.584 0-0.512 0-2.56-2.048-3.584L82.432 471.04c-4.608-2.048-9.728-7.168-9.728-16.896s5.12-14.336 9.728-16.896l128-67.584c1.536-0.512 2.048-2.048 2.048-3.584V174.08c0-9.728 5.12-14.336 9.728-16.896l280.064-154.112 1.024-0.512h1.536c1.536-1.024 3.584-1.536 6.656-1.536s5.12 1.024 6.656 1.536h1.536l281.088 154.624c4.608 2.048 9.728 7.168 9.728 16.896v192.512c0 1.536 1.024 3.072 2.048 3.584l128 67.584c4.608 2.048 9.728 7.168 9.728 16.896 1.024 9.728-4.096 14.336-8.704 16.384zM250.88 343.04c0 2.048 1.536 3.072 2.048 3.584 0.512 0.512 2.048 1.024 4.096 0l119.296-62.464c2.048-1.536 5.632-2.56 9.728-2.56 4.608 0 7.68 1.024 9.728 2.56l91.136 48.64c2.048 1.024 3.584 0 4.096 0 0.512-0.512 2.048-1.536 2.048-3.584v-268.8c0-2.048-1.536-3.072-2.048-3.584-0.512-0.512-2.048-1.024-4.096 0l-233.984 128.512c-1.536 0.512-2.048 2.048-2.048 3.584V343.04zM138.752 458.24L219.136 501.76c1.024 0.512 2.56 0.512 4.096 0l241.664-129.536c2.048-1.024 2.048-3.072 2.048-3.584 0-0.512 0-2.56-2.048-3.584l-77.312-41.984c-1.024-0.512-2.56-0.512-3.584 0l-244.736 128c-2.048 1.024-2.048 3.072-2.048 3.584-0.512 0.512 0 2.56 1.536 3.584z m326.144 218.624L223.232 547.328c-1.024-0.512-2.56-0.512-4.096 0l-80.384 43.52c-2.048 1.024-2.048 3.072-2.048 3.584 0 0.512 0 2.56 2.048 3.584l244.736 128c0.512 0.512 1.024 0.512 2.048 0.512 0.512 0 1.536 0 2.048-0.512l77.312-41.984c2.048-1.024 2.048-3.072 2.048-3.584 0-0.512 0-2.56-2.048-3.584zM757.76 524.8c0-0.512 0-2.56-2.048-3.584l-241.664-129.536c-1.024-0.512-2.56-0.512-4.096 0L268.288 521.216c-1.536 1.024-2.048 2.56-2.048 3.584 0 0.512 0 2.56 2.048 3.584l241.664 129.536c0.512 0.512 1.024 0.512 2.048 0.512 0.512 0 1.536 0 2.048-0.512l241.664-129.536c1.536-1.024 2.048-3.072 2.048-3.584z m-226.816-196.096c0 2.048 1.536 3.072 2.048 3.584 0.512 0 1.024 0.512 2.048 0.512 0.512 0 1.024 0 2.048-0.512l91.136-48.64c2.048-1.536 5.632-2.56 9.728-2.56s7.68 1.024 9.728 2.56l124.928 65.536v-161.28c0-1.536-1.024-3.072-2.048-3.584l-233.472-128c-2.048-1.024-3.584-0.512-4.096 0s-2.048 1.536-2.048 3.584v268.8z m105.472-5.632l-77.312 41.984c-2.048 1.024-2.048 3.072-2.048 3.584 0 0.512 0 2.56 2.048 3.584L800.768 501.76c0.512 0.512 1.024 0.512 2.048 0.512 0.512 0 1.536 0 2.048-0.512l80.384-43.52c2.048-1.024 2.048-3.072 2.048-3.584 0-0.512 0-2.56-2.048-3.584l-244.736-128c-1.536-1.024-3.072-1.024-4.096 0z m248.832 267.776l-80.384-43.52c-1.024-0.512-2.56-0.512-4.096 0l-241.664 129.536c-2.048 1.024-2.048 3.072-2.048 3.584 0 0.512 0 2.56 2.048 3.584l77.312 41.984c1.024 0.512 2.56 0.512 3.584 0l244.736-128c2.048-1.024 2.048-3.072 2.048-3.584 0.512-0.512 0-2.56-1.536-3.584z"  horiz-adv-x="1024" />

    
    <glyph glyph-name="notice" unicode="&#58895;" d="M850.432 288.256l-59.904 52.224V471.552c0 76.8-28.672 149.504-81.408 203.776-33.792 35.328-74.752 59.904-119.296 73.728 0 41.472-33.792 75.264-75.264 75.264s-75.264-33.28-75.264-74.752c-114.688-34.816-199.168-146.944-199.168-279.552l-1.536-129.024-59.904-52.736c-47.616-41.984-62.976-109.568-36.352-164.864 20.48-42.496 59.392-70.656 103.936-73.728 3.072-0.512 6.144-0.512 9.728-0.512h139.264c8.704-57.856 58.88-102.912 119.808-102.912s110.592 44.544 119.808 102.912h138.24c3.584 0 6.656 0.512 9.728 0.512 44.544 3.072 83.456 30.72 103.936 73.728 26.624 55.296 11.776 123.392-36.352 164.864z m-335.872 488.448c11.264 0 21.504-7.168 25.6-17.408-8.704 1.024-17.408 1.536-26.112 1.536-8.192 0-16.384-0.512-24.576-1.024 3.584 9.728 13.312 16.896 25.088 16.896z m0-782.336c-33.792 0-62.464 23.04-70.656 54.784h141.312c-8.192-31.232-36.864-54.784-70.656-54.784z m329.216 149.504c-12.8-27.648-36.352-45.056-64.512-47.104H249.344c-27.136 2.048-50.688 19.456-64.512 47.104-16.896 35.84-6.656 80.384 25.088 108.032l68.096 59.904c6.144 5.632 8.704 12.8 8.192 20.48v0.512l2.048 136.704c0 133.632 101.376 242.176 225.792 242.176 59.904 0 116.736-25.088 160.256-70.144 43.52-46.08 68.096-106.496 68.096-171.008v-142.336c0-9.216 5.12-16.896 12.288-20.992l0.512-0.512 63.488-55.296c31.744-27.136 42.496-72.192 25.088-107.52z"  horiz-adv-x="1024" />

    
    <glyph glyph-name="pre-claim-application" unicode="&#58896;" d="M241.152 502.272h230.912c11.776 0 20.992 9.216 20.992 20.992s-9.216 20.992-20.992 20.992H241.152c-11.776 0-20.992-9.216-20.992-20.992s9.728-20.992 20.992-20.992zM571.392 410.624c0 11.776-9.216 20.992-20.992 20.992H241.152c-11.776 0-20.992-9.216-20.992-20.992s9.216-20.992 20.992-20.992h309.248c11.776 0 20.992 9.728 20.992 20.992zM814.592 428.544c-24.576 24.576-61.952 27.136-83.456 5.632l-186.368-188.928c-14.336-14.848-35.328-75.776-47.104-111.104-2.56-7.68-0.512-15.872 5.12-21.504 4.096-4.096 9.216-6.144 14.848-6.144 2.048 0 4.608 0.512 6.656 1.024 35.328 11.776 96.256 33.792 110.08 48.64l186.368 188.928c10.752 10.752 15.872 26.624 13.824 43.008-1.024 14.848-8.704 29.184-19.968 40.448z m-23.04-53.76l-185.856-188.928c-5.12-4.608-27.648-13.824-53.248-24.064 9.728 26.112 18.944 48.128 23.04 53.248l185.856 189.44c1.536 1.536 3.584 2.048 6.656 2.048 5.12 0 11.776-2.56 17.408-8.192 4.608-4.608 7.68-10.24 8.192-15.36 0-2.048 0-6.144-2.048-8.192zM909.824 821.248c-13.824 13.824-32.256 21.504-51.712 21.504h-7.168c-26.112 0-50.688-14.848-65.536-40.448-7.168-12.288-19.968-19.456-33.792-19.456-11.776 0-23.04 5.12-30.208 14.336-24.064 29.184-55.808 45.568-89.6 45.568-33.28 0-65.024-16.384-89.088-45.568-7.68-9.216-18.432-14.336-30.208-14.336-11.776 0-23.04 5.12-30.208 14.336-24.064 29.184-55.808 45.568-89.088 45.568S327.68 826.88 303.616 797.696C295.936 788.48 285.184 783.36 273.408 783.36c-13.824 0-27.136 7.68-33.792 19.456-14.848 25.088-39.424 40.448-65.536 40.448h-7.68c-40.448 0-73.216-32.768-73.216-73.216v-772.096c0-40.448 32.768-73.216 73.216-73.216H174.08c26.112 0 50.688 14.848 65.536 40.448 7.168 12.288 19.968 19.456 33.792 19.456 11.776 0 23.04-5.12 30.208-14.336 24.064-29.184 55.808-45.568 89.088-45.568s65.024 16.384 89.088 45.568c7.68 9.216 18.432 14.336 30.208 14.336s23.04-5.12 30.208-14.336c24.064-29.184 55.808-45.568 89.6-45.568 33.28 0 65.024 16.384 89.088 45.568 7.68 9.216 18.432 14.336 30.208 14.336 13.824 0 27.136-7.68 33.792-19.456 14.848-25.088 39.424-40.448 65.536-40.448h7.168c40.448 0 73.216 32.768 73.216 73.216V769.536c0.512 19.456-6.656 37.888-20.992 51.712z m-19.456-824.32c0-17.92-14.336-32.256-32.256-32.256h-7.168c-11.776 0-22.528 7.168-30.208 19.968-14.336 24.576-40.96 39.936-69.12 39.936-24.064 0-46.592-10.752-61.952-29.184-16.384-19.456-36.864-30.72-57.856-30.72-20.992 0-41.472 10.752-57.344 30.72-15.36 18.432-37.888 29.184-61.952 29.184-24.576 0.512-47.104-10.24-62.464-29.184-16.384-19.456-36.352-30.72-57.344-30.72s-41.472 10.752-57.344 30.72c-15.36 18.432-37.888 29.184-61.952 29.184-28.16 0-54.784-15.36-69.12-39.936-7.68-12.8-18.432-19.968-30.208-19.968h-7.68c-17.92 0-32.256 14.336-32.256 32.256V769.536c0 17.92 14.336 32.256 32.256 32.256H174.08c11.776 0 22.528-7.168 30.208-19.968 14.336-24.576 40.96-39.936 69.12-39.936 24.064 0 46.592 10.752 61.952 29.184 16.384 19.456 36.352 30.72 57.344 30.72s41.472-10.752 57.344-30.72c15.36-18.432 37.888-29.184 61.952-29.184s46.592 10.752 61.952 29.184c16.384 19.456 36.864 30.72 57.856 30.72 20.992 0 41.472-10.752 57.344-30.72 15.36-18.432 37.888-29.184 61.952-29.184 28.16 0 54.784 15.36 69.12 39.936 7.68 12.8 18.432 19.968 30.208 19.968h7.168c8.704 0 16.896-3.584 23.04-9.728s9.728-14.336 9.728-23.04v-772.096z"  horiz-adv-x="1024" />

    
    <glyph glyph-name="pick-up-reminder" unicode="&#58897;" d="M287.744 212.992h449.024c11.776 0 20.992 9.216 20.992 20.992s-9.216 20.992-20.992 20.992H287.744c-11.776 0-20.992-9.216-20.992-20.992s9.728-20.992 20.992-20.992zM783.36 142.336H241.664c-11.776 0-20.992-9.216-20.992-20.992s9.216-20.992 20.992-20.992h541.184c11.776 0 20.992 9.216 20.992 20.992s-9.216 20.992-20.48 20.992zM909.824 800.768c-13.824 13.824-32.256 21.504-51.712 21.504h-7.168c-26.112 0-50.688-14.848-65.536-40.448-7.168-12.288-19.968-19.456-33.792-19.456-11.776 0-23.04 5.12-30.208 14.336-24.064 29.184-55.808 45.568-89.6 45.568-33.28 0-65.024-16.384-89.088-45.568-7.68-9.216-18.432-14.336-30.208-14.336s-23.04 5.12-30.208 14.336c-24.064 29.184-55.808 45.568-89.088 45.568S327.68 806.4 303.616 777.216C295.936 768 285.184 762.88 273.408 762.88c-13.824 0-27.136 7.68-33.792 19.456-14.848 25.088-39.424 40.448-65.536 40.448h-7.68c-40.448 0-73.216-32.768-73.216-73.216v-772.096c0-40.448 32.768-73.216 73.216-73.216H174.08c26.112 0 50.688 14.848 65.536 40.448 7.168 12.288 19.968 19.456 33.792 19.456 11.776 0 23.04-5.12 30.208-14.336 24.064-29.184 55.808-45.568 89.088-45.568s65.024 16.384 89.088 45.568c7.68 9.216 18.432 14.336 30.208 14.336s23.04-5.12 30.208-14.336c24.064-29.184 55.808-45.568 89.6-45.568 33.28 0 65.024 16.384 89.088 45.568 7.68 9.216 18.432 14.336 30.208 14.336 13.824 0 27.136-7.68 33.792-19.456 14.848-25.088 39.424-40.448 65.536-40.448h7.168c40.448 0 73.216 32.768 73.216 73.216V749.056c0.512 19.456-6.656 37.888-20.992 51.712z m-19.456-824.32c0-17.92-14.336-32.256-32.256-32.256h-7.168c-11.776 0-22.528 7.168-30.208 19.968-14.336 24.576-40.96 39.936-69.12 39.936-24.064 0-46.592-10.752-61.952-29.184-16.384-19.456-36.864-30.72-57.856-30.72-20.992 0-41.472 10.752-57.344 30.72-15.36 18.432-37.888 29.184-61.952 29.184-24.576 0.512-47.104-10.24-62.464-29.184-16.384-19.456-36.352-30.72-57.344-30.72s-41.472 10.752-57.344 30.72c-15.36 18.432-37.888 29.184-61.952 29.184-28.16 0-54.784-15.36-69.12-39.936-7.68-12.8-18.432-19.968-30.208-19.968h-7.68c-17.92 0-32.256 14.336-32.256 32.256V749.056c0 17.92 14.336 32.256 32.256 32.256H174.08c11.776 0 22.528-7.168 30.208-19.968 14.336-24.576 40.96-39.936 69.12-39.936 24.064 0 46.592 10.752 61.952 29.184 16.384 19.456 36.352 30.72 57.344 30.72s41.472-10.752 57.344-30.72c15.36-18.432 37.888-29.184 61.952-29.184s46.592 10.752 61.952 29.184c16.384 19.456 36.864 30.72 57.856 30.72 20.992 0 41.472-10.752 57.344-30.72 15.36-18.432 37.888-29.184 61.952-29.184 28.16 0 54.784 15.36 69.12 39.936 7.68 12.8 18.432 19.968 30.208 19.968h7.168c8.704 0 16.896-3.584 23.04-9.728 6.144-6.144 9.728-14.336 9.728-23.04v-772.096zM329.216 482.816c-0.512-30.208-1.024-60.416-1.024-91.136 0-16.384-1.024-32.768 0.512-48.64 0.512-7.168 3.072-19.456 7.168-22.016 3.072-4.096 56.832-4.096 67.072 0 4.608 1.536 7.168 25.6 10.752 39.936h198.144c5.12-13.312-4.608-29.696 10.752-39.936 4.608-3.072 62.464-3.072 65.536 1.024 3.072 1.536 6.656 12.288 7.168 19.456 1.024 38.4 0.512 77.312 0.512 115.712 0 8.704-2.048 16.896-3.072 25.088 7.168 2.048 15.36 4.096 23.552 6.656 1.024 3.072 1.536 7.68 0 12.8-5.632 15.872-14.848 26.624-33.792 24.064-3.072-0.512-7.68 5.12-9.216 9.216-9.216 23.552-17.408 47.104-26.112 71.168-5.12 15.36-15.36 25.088-30.208 29.184-19.456 5.12-39.936 8.704-60.416 13.312-29.184 4.608-55.808 4.608-87.552 0-11.264-1.536-23.04-3.072-34.304-5.12C404.48 637.952 380.928 624.64 372.224 591.872c-5.12-19.456-12.8-37.888-19.968-56.832-1.024-3.584-6.144-9.216-8.704-8.704-20.992 2.56-29.184-10.24-34.816-27.136-1.024-3.584-0.512-7.168 0-10.24 7.168-2.56 14.848-4.608 20.48-6.144z m330.752-16.896c8.704 2.56 14.336-4.608 14.336-13.824 1.024-10.752 4.096-23.552-11.264-27.136-11.264-2.56-23.04-3.072-32.256-4.096-10.752 1.024-19.456 1.024-27.648 2.56-10.24 2.048-13.312 14.336-4.608 18.944 19.968 9.216 40.96 16.896 61.44 23.552zM406.528 598.016c2.048 5.12 9.216 9.216 15.36 10.752 13.312 3.072 27.648 6.656 41.984 6.656 42.496-0.512 84.992-1.536 127.488-3.584 17.408-1.024 29.184-9.728 33.792-27.648 5.632-20.992 13.312-41.984 20.992-64.512-89.6-19.456-177.152-18.944-268.288 0 9.728 27.136 18.432 53.76 28.672 78.336zM350.208 455.68c3.072 12.288 12.288 13.312 21.504 10.24 17.408-5.632 34.304-12.8 51.2-20.48 3.584-2.56 8.192-10.24 7.168-13.312-1.536-4.608-7.68-8.192-13.312-9.216-7.168-1.536-14.848-2.048-21.504-2.048-10.752 1.024-21.504 1.024-31.744 3.584-13.824 3.072-17.408 13.312-13.312 31.232z"  horiz-adv-x="1024" />

    
    <glyph glyph-name="s-close" unicode="&#58898;" d="M753.664 685.568L512 443.904 270.336 685.568c-16.896 16.896-43.52 16.896-59.904 0-16.896-16.896-16.896-43.52 0-59.904L452.096 384l-241.664-241.664c-16.896-16.896-16.896-43.52 0-59.904 16.896-16.896 43.52-16.896 59.904 0l241.664 241.664 241.664-241.664c16.896-16.896 43.52-16.896 59.904 0 16.896 16.896 16.896 43.52 0 59.904L571.904 384l241.664 241.664c16.896 16.896 16.896 43.52 0 59.904-16.896 16.896-43.52 16.896-59.904 0z"  horiz-adv-x="1024" />

    
    <glyph glyph-name="settlement-batch" unicode="&#58899;" d="M751.616 715.776h-108.032c-19.968 56.832-73.728 94.72-133.632 94.72-60.416 0-113.664-38.912-133.632-94.72H272.384c-50.688 0-92.16-42.496-92.16-95.232v-568.32c0-52.224 41.472-95.232 92.16-95.232h479.232c50.688 0 92.16 42.496 92.16 95.232v568.32c0 52.736-41.472 95.232-92.16 95.232z m45.056-450.048v-212.992c0-26.112-19.968-47.616-45.056-47.616H272.384c-24.576 0-45.056 21.504-45.056 47.616v568.32c0 26.112 19.968 47.616 45.056 47.616h119.296c5.12 0 9.728 2.048 13.824 5.12 6.144 3.072 10.752 8.704 12.288 15.36C427.52 732.16 465.92 762.88 509.952 763.392c45.056 0 83.968-31.744 92.672-75.776 2.048-11.264 11.776-18.944 23.04-18.944 1.024 0 2.048 0 3.072 0.512 0.512 0 1.024-0.512 1.536-0.512h120.832c24.576 0 45.056-21.504 45.056-47.616v-355.328zM666.624 349.184c14.336 0 26.112 11.776 26.112 26.112s-11.776 26.112-26.112 26.112h-119.808l136.704 117.248c9.728 9.216 11.264 24.576 2.56 35.328-9.216 11.264-25.088 12.8-36.352 3.584L512 439.296 374.272 557.568c-10.752 8.704-26.112 7.68-35.328-2.56-9.728-10.24-9.216-26.624 1.536-36.352l136.704-117.248H357.376c-14.336 0-26.112-11.776-26.112-26.112s11.776-26.112 26.112-26.112h128.512V276.48H357.376c-14.336 0-26.112-11.776-26.112-26.112s11.776-26.112 26.112-26.112h128.512V143.36c0-14.336 11.776-26.112 26.112-26.112s26.112 11.776 26.112 26.112v81.408h128.512c14.336 0 26.112 11.776 26.112 26.112s-11.776 26.112-26.112 26.112h-128.512v72.704h128.512z"  horiz-adv-x="1024" />

    
    <glyph glyph-name="s-next" unicode="&#58900;" d="M250.88 799.232l414.208-414.208L249.344-30.72c-20.48-20.48-21.504-56.832-2.048-76.288 19.968-19.968 55.808-18.432 76.288 2.048l449.536 449.536 2.56 2.56 1.024 1.024c19.456 19.456 18.432 55.808-2.048 76.288L325.12 873.472C304.64 893.952 268.288 894.976 248.832 875.52c-20.48-19.968-18.944-55.808 2.048-76.288z"  horiz-adv-x="1024" />

    
    <glyph glyph-name="service-activities" unicode="&#58901;" d="M768 822.784H256c-80.384 0-146.432-66.048-146.432-146.432V0c0-10.752 3.584-22.016 7.168-32.768 10.752-25.6 40.448-40.448 66.048-40.448 10.752 0 22.016 3.584 32.768 7.168l274.432 135.168c14.848 7.168 29.184 7.168 44.032 0l274.432-135.168c10.752-3.584 22.016-7.168 32.768-7.168 40.448 0 73.216 32.768 73.216 73.216V676.352c0 80.896-66.048 146.432-146.432 146.432zM859.648 0c0-10.752-14.848-22.016-25.6-14.848l-274.432 135.168c-29.184 14.848-66.048 14.848-95.232 0l-274.432-135.168c-7.168-3.584-18.432 0-22.016 7.168-3.584 0-3.584 3.584-3.584 7.168V676.352C164.352 727.552 204.8 768 256 768h512c51.2 0 91.648-40.448 91.648-91.648V0zM595.968 603.648H431.616c-18.432 0-29.184-10.752-32.768-29.184 0-18.432 14.848-29.184 29.184-29.184h164.352c18.432 0 29.184 14.848 29.184 29.184 0 17.92-10.752 29.184-25.6 29.184z"  horiz-adv-x="1024" />

    
    <glyph glyph-name="return" unicode="&#58902;" d="M752.128 726.016H271.872c-67.072 0-121.344-54.784-121.344-121.344v-475.136c0-47.616 38.912-87.552 87.552-87.552h548.864c48.64 0 87.552 38.912 87.552 86.528v476.16c-0.512 66.56-55.296 121.344-122.368 121.344z m80.896-184.32h-424.96c-11.776 0-20.48-8.704-20.48-20.48s8.704-20.48 20.48-20.48h424.448v-372.224c0-25.088-20.48-46.592-46.592-46.592H237.568c-25.088 0-46.592 20.48-46.592 46.592V500.736h110.08c11.776 0 20.48 8.704 20.48 20.48s-8.704 20.48-20.48 20.48H190.976V604.672c0 44.544 36.352 80.384 80.384 80.384h480.768c44.544 0 80.384-36.352 80.384-80.384v-62.976zM364.032 352.768c0-5.12 2.048-9.728 5.632-13.312l61.952-61.952c7.168-7.168 18.944-7.168 26.112 0 7.168 7.168 7.168 18.944 0 26.112l-29.696 29.696h128c36.352 0 66.048-29.696 66.048-66.048s-29.696-66.048-66.048-66.048H443.904c-10.24 0-18.432-8.192-18.432-18.432s8.192-18.432 18.432-18.432h112.128c56.832 0 103.424 46.592 103.424 103.424s-46.592 103.424-103.424 103.424H427.52l30.72 30.72c7.168 7.168 7.168 18.944 0 26.112-7.168 7.168-18.944 7.168-26.112 0l-62.464-61.952c-3.584-3.584-5.632-8.192-5.632-13.312z"  horiz-adv-x="1024" />

    
    <glyph glyph-name="s-down" unicode="&#58903;" d="M20.48 647.168C1.024 627.712 2.048 591.36 22.528 570.88l449.024-449.536c20.48-20.48 56.832-21.504 76.288-2.048l1.024 1.024 2.56 2.56 449.536 449.536c20.48 20.48 22.016 56.32 2.048 76.288-19.456 19.456-55.808 18.432-76.288-2.048l-415.744-415.744L96.768 645.12c-20.48 20.992-56.32 22.528-76.288 2.048z"  horiz-adv-x="1024" />

    
    <glyph glyph-name="s-spanner" unicode="&#58904;" d="M922.624 395.264c-1.536 28.672-24.576 51.712-53.248 53.248h-2.56l-0.512 2.56c-9.216 43.52-26.624 84.992-50.688 122.368l-1.536 2.048-0.512-0.512c22.016 22.016 22.016 57.344 0 79.36l-22.528 22.528-2.56 2.048c-21.504 18.944-53.248 18.944-74.752 0l-2.048-1.536-2.048 1.536c-37.376 24.064-78.848 41.472-122.368 50.688l-2.56 0.512v-1.024c0 31.232-25.088 56.32-56.32 56.32H493.056c-28.672-1.536-51.712-24.576-53.248-53.248v-2.048l-2.56-0.512c-43.52-9.216-84.992-26.624-122.368-50.688l-2.048-1.536 0.512-0.512c-22.016 22.016-57.344 22.016-79.36 0l-22.528-22.528-1.536-2.56c-18.944-21.504-18.944-53.248 0-74.752l1.536-2.048-1.536-2.048c-24.064-37.376-41.472-78.848-50.688-122.368l-0.512-2.56h1.024c-31.232 0-56.32-25.088-56.32-56.32V356.352c1.536-28.672 24.576-51.712 53.248-53.248h2.048l0.512-2.56c9.216-43.52 26.624-84.992 50.688-122.368l1.536-2.048 0.512 0.512c-22.016-22.016-22.016-57.344 0-79.36l22.528-22.528 2.56-2.048c21.504-18.944 53.248-18.944 74.752 0l2.048 1.536 2.048-1.536c37.376-24.064 78.848-41.472 122.368-50.688l2.56-0.512v1.024c0-31.232 25.088-56.32 56.32-56.32H532.48c28.672 1.536 51.712 24.576 53.248 53.248v2.56l2.56 0.512c43.52 9.216 84.992 26.624 122.368 50.688l2.048 1.536-0.512 0.512c22.016-22.016 57.344-22.016 79.36 0l22.528 22.528 2.048 2.56c18.944 21.504 18.944 53.248 0 74.752l-1.536 2.048 1.536 2.048c24.064 37.376 41.472 78.848 50.688 122.368l0.512 2.56h-1.024c31.232 0 56.32 25.088 56.32 56.32v34.816z m-444.416-126.976L384 174.592c-5.12-5.12-11.776-7.68-18.432-7.68-6.656 0-12.8 2.56-18.432 7.68l-36.352 36.352c-10.24 10.24-10.24 26.112 0 36.352L404.48 340.992c5.12 5.12 11.776 7.68 18.432 7.68 7.68 0 14.336-2.56 18.432-7.68l36.352-36.352c10.752-10.24 10.752-26.112 0.512-36.352z m245.248-64c-2.56-5.12-6.656-7.68-11.776-7.68-4.096 0-6.656 1.536-9.216 4.096l-44.544 44.544-15.872-15.872 44.544-44.544c6.656-6.656 4.096-16.896-4.096-20.992-12.8-6.656-26.112-9.216-40.448-9.216-23.552 0-45.568 7.68-64 26.112-24.576 26.112-32.768 62.464-20.992 95.232L412.672 420.864c-9.216-4.096-19.456-5.12-30.208-5.12-23.552 0-45.568 7.68-64 26.112-28.672 28.672-33.792 71.68-16.896 105.472 2.56 5.12 6.656 7.68 11.776 7.68 4.096 0 6.656-1.536 9.216-4.096l44.544-44.544 15.872 15.872-44.544 44.544c-6.656 6.656-4.096 16.896 4.096 20.992 12.8 6.656 26.112 9.216 40.448 9.216 23.552 0 45.568-9.216 62.464-26.112 24.576-26.112 32.768-62.464 20.992-95.232l144.896-144.896c10.24 4.096 20.992 5.12 31.232 5.12 23.552 0 45.568-7.68 64-26.112 28.672-28.16 33.792-71.168 16.896-105.472z m6.144 333.824L665.6 474.112c-2.56-2.56-6.656-4.096-9.216-4.096s-6.656 1.536-9.216 4.096l-9.216 9.216L574.464 419.84c-2.56-2.56-6.656-4.096-9.216-4.096s-6.656 1.536-9.216 4.096c-5.12 5.12-5.12 12.8 0 18.432L620.032 501.76l-9.216 9.216c-5.12 5.12-5.12 12.8 0 18.432l64 64c2.56 2.56 5.12 4.096 9.216 4.096s7.68-1.536 9.216-4.096l36.352-36.352c5.632-5.632 5.632-13.312 0-18.944z"  horiz-adv-x="1024" />

    
    <glyph glyph-name="s-sift" unicode="&#58905;" d="M814.592 740.352c-3.584 7.68-10.752 12.288-18.944 12.288H131.584c-8.192 0-15.36-4.608-18.944-12.288-3.072-7.168-2.048-15.872 3.584-22.016l235.52-263.68V168.96c0-6.656 3.072-12.8 8.704-16.896l86.528-62.464c9.216-6.656 22.016-4.608 28.672 4.608 6.656 9.216 4.608 22.016-4.608 28.672l-77.824 56.32V462.336c0 5.12-1.536 10.24-5.12 13.824l-209.92 235.008h572.416L544.768 476.16c-3.072-4.096-5.12-8.704-5.12-13.824v-476.16c0-11.264 9.216-20.48 20.48-20.48s20.48 9.216 20.992 20.48V454.656l230.4 263.68c5.12 6.144 6.656 14.336 3.072 22.016zM628.736 337.408c0-11.264 9.216-20.48 20.48-20.48h227.328c11.264 0 20.48 9.216 20.48 20.48s-9.216 20.48-20.48 20.48h-227.328c-11.264 0-20.48-9.216-20.48-20.48zM876.544 89.088h-227.328c-11.264 0-20.48-9.216-20.48-20.48s9.216-20.48 20.48-20.48h227.328c11.264 0 20.48 9.216 20.48 20.48s-9.216 20.48-20.48 20.48zM876.544 223.744h-227.328c-11.264 0-20.48-9.216-20.48-20.48s9.216-20.48 20.48-20.48h227.328c11.264 0 20.48 9.216 20.48 20.48s-9.216 20.48-20.48 20.48z"  horiz-adv-x="1024" />

    
    <glyph glyph-name="s-consult" unicode="&#58906;" d="M825.856 711.168c-89.088 86.016-207.872 131.072-331.776 125.952-235.52-9.216-425.984-199.68-435.2-435.2-5.12-123.904 39.936-241.664 125.952-331.776 86.016-90.112 202.752-139.264 326.656-139.264h241.664c43.008 0 78.848 35.84 78.848 78.848v54.272c86.016 86.016 133.12 199.68 133.12 320.512 0 124.928-50.176 240.64-139.264 326.656z m-39.424-600.064c-15.872-15.872-24.576-37.376-24.576-58.88v-54.272h-248.832c-105.984 0-205.312 41.472-278.528 118.784-73.728 75.776-112.128 177.152-108.032 284.16 7.68 200.704 171.008 364.032 371.712 371.712h14.848c100.352 0 195.584-38.4 269.312-108.032C859.136 590.848 901.12 491.52 901.12 386.048c-0.512-103.936-40.96-201.216-114.688-274.944zM406.528 497.664c3.072 36.864-27.136 67.072-64 64-28.16-2.56-51.2-25.6-53.248-53.248-3.072-36.864 27.136-67.072 64-64 27.648 2.048 50.688 25.088 53.248 53.248zM671.232 561.664c-28.16-2.56-51.2-25.6-53.248-53.248-3.072-36.864 27.136-67.072 64-64 28.16 2.56 51.2 25.6 53.248 53.248 3.072 36.864-27.136 67.072-64 64zM640 318.976c-17.408 9.216-38.4 3.072-48.128-13.824-0.512-1.536-26.112-45.056-86.016-45.056-54.784 0-72.704 37.888-74.24 41.984v-0.512l-30.72-11.776c-19.456-7.68-26.112-32.256-12.288-48.128C409.6 217.088 446.464 189.44 506.88 189.44c102.4 0 146.432 79.36 146.944 81.408 9.216 16.896 3.072 38.4-13.824 48.128z"  horiz-adv-x="1024" />

    
    <glyph glyph-name="separate-return" unicode="&#58907;" d="M920.064 467.968c0.512 3.584-0.512 7.68-2.56 11.264l-142.336 267.264c-10.24 18.944-30.208 31.232-52.224 31.232l-421.888 1.024c-22.016 0-41.984-11.776-52.224-31.232l-143.36-268.288c-2.56-4.608-3.072-9.728-2.048-14.336-0.512-2.56-0.512-5.12-0.512-7.68l-1.024-399.36c0-15.872 6.144-30.72 17.408-41.984 11.264-11.264 26.112-17.408 41.984-17.408l699.392-1.024c32.768 0 59.392 26.624 59.392 59.392l1.024 399.36c0 4.096-0.512 8.192-1.024 11.776zM738.816 727.04l112.128-210.944-236.032 0.512-31.744 220.16 139.776-0.512c6.656 0 12.8-3.584 15.872-9.216z m-291.84-252.416h129.536l-0.512-231.424-129.536 0.512 0.512 230.912z m3.072 41.984l32.768 220.16h58.88l31.744-220.16c-0.512-0.512-123.392 0-123.392 0zM285.696 728.064c3.072 5.632 9.216 9.216 15.36 9.216l139.264-0.512-32.768-220.16-234.496 0.512 112.64 210.944z m592.384-671.232c0-9.728-8.192-17.408-17.92-17.408l-699.392 1.024c-4.608 0-9.216 2.048-12.288 5.12-3.072 3.584-5.12 7.68-5.12 12.288l1.024 399.36c0 9.728 8.192 17.408 17.92 17.408l242.688-0.512-0.512-232.96c0-10.24 4.096-20.48 11.264-27.648 7.168-7.168 17.408-11.264 27.648-11.264l135.168-0.512c21.504 0 38.912 17.408 38.912 38.912l0.512 233.984 243.712-0.512c4.608 0 9.216-2.048 12.288-5.12 3.072-3.584 5.12-7.68 5.12-12.288l-1.024-399.872z"  horiz-adv-x="1024" />

    
    <glyph glyph-name="s-news-1" unicode="&#58908;" d="M826.368 710.656C737.28 796.672 618.496 841.728 494.592 836.608c-235.52-9.216-425.984-199.68-435.2-435.2-5.12-123.904 39.936-241.664 125.952-331.776s202.752-139.264 326.656-139.264h241.664c43.008 0 78.848 35.84 78.848 78.848v54.272c86.016 86.016 133.12 199.68 133.12 320.512 0 124.928-50.176 240.64-139.264 326.656z m-39.424-600.064c-15.872-15.872-24.576-37.376-24.576-58.88v-54.272h-248.832c-105.984 0-205.312 41.472-278.528 118.784-73.728 75.776-112.128 177.152-108.032 284.16 7.68 200.704 171.008 364.032 371.712 371.712h14.848c100.352 0 195.584-38.4 269.312-108.032 76.8-73.728 118.784-173.056 118.784-278.528-0.512-103.936-40.96-201.216-114.688-274.944zM317.44 407.552m-51.2 0a51.2 51.2 0 1 1 102.4 0 51.2 51.2 0 1 1-102.4 0ZM512 407.552m-51.2 0a51.2 51.2 0 1 1 102.4 0 51.2 51.2 0 1 1-102.4 0ZM706.56 407.552m-51.2 0a51.2 51.2 0 1 1 102.4 0 51.2 51.2 0 1 1-102.4 0Z"  horiz-adv-x="1024" />

    
    <glyph glyph-name="user" unicode="&#58909;" d="M932.506815-16.347299c-3.101464 10.338213-63.58001 223.305401-231.059061 313.764765 70.816759 54.792529 116.304897 140.599697 116.304896 236.745078 0 165.411408-134.91368 300.325088-300.325088 300.325089h-0.516911-0.51691c-165.411408 0-300.325088-134.396769-300.325089-300.325089 0-96.145381 45.488137-181.952549 116.304897-236.745078-166.96214-90.459364-227.957597-303.426552-231.059061-313.764765-5.686017-20.676426 6.202928-42.386673 27.396264-48.072691 3.618375-1.033821 7.236749-1.550732 10.338213-1.550732 17.058051 0 33.082282 11.372034 37.734478 28.946997 0.516911 2.584553 67.715295 237.261989 245.015648 286.3685a292.571429 292.571429 0 0 1 82.705705-14.990409h24.811711c28.946996 1.033821 56.343261 6.202928 82.705704 14.990409 177.300353-49.623423 244.498738-284.300858 245.015649-286.3685 4.652196-17.574962 20.676426-28.946996 37.734477-28.946997 3.618375 0 7.236749 0.516911 10.338213 1.550732 20.676426 5.686017 33.082282 27.396265 27.396265 48.072691zM295.672892 534.162544c0 121.990914 99.246845 221.237759 221.237759 221.75467 121.990914-0.516911 221.237759-99.763756 221.237759-221.75467s-99.246845-221.237759-221.237759-221.754669c-121.990914 0.516911-221.237759 99.763756-221.237759 221.754669z"  horiz-adv-x="1033" />

    
    <glyph glyph-name="s-calendar" unicode="&#58910;" d="M320 640c13.824 0 25.088 11.264 25.088 25.088v107.52c0 13.824-11.264 25.088-25.088 25.088s-25.088-11.264-25.088-25.088v-108.032c0-13.312 11.264-24.576 25.088-24.576zM358.912 192H281.088c-13.824 0-25.088-11.264-25.088-25.088s11.264-25.088 25.088-25.088h77.824c13.824 0 25.088 11.264 25.088 25.088s-11.264 25.088-25.088 25.088zM703.488 640c13.824 0 25.088 11.264 25.088 25.088v107.52c0 13.824-11.264 25.088-25.088 25.088s-25.088-11.264-25.088-25.088v-108.032c0-13.312 11.264-24.576 25.088-24.576zM384 740.864h257.024v-50.176H384zM358.912 369.152H281.088c-13.824 0-25.088-11.264-25.088-25.088s11.264-25.088 25.088-25.088h77.824c13.824 0 25.088 11.264 25.088 25.088s-11.264 25.088-25.088 25.088zM743.936 192h-77.824c-13.824 0-25.088-11.264-25.088-25.088s11.264-25.088 25.088-25.088h77.824c13.824 0 25.088 11.264 25.088 25.088s-11.264 25.088-25.088 25.088zM743.936 369.152h-77.824c-13.824 0-25.088-11.264-25.088-25.088s11.264-25.088 25.088-25.088h77.824c13.824 0 25.088 11.264 25.088 25.088s-11.264 25.088-25.088 25.088zM550.912 369.152H473.088c-13.824 0-25.088-11.264-25.088-25.088s11.264-25.088 25.088-25.088h77.824c13.824 0 25.088 11.264 25.088 25.088s-11.264 25.088-25.088 25.088zM550.912 192H473.088c-13.824 0-25.088-11.264-25.088-25.088s11.264-25.088 25.088-25.088h77.824c13.824 0 25.088 11.264 25.088 25.088s-11.264 25.088-25.088 25.088zM876.544 740.864h-108.032V691.2h107.52c0.512 0 1.024-0.512 1.024-1.024V537.6H147.968V689.664c0 0.512 0.512 1.024 1.024 1.024H256v50.176H148.992c-28.16 0-51.2-23.04-51.2-51.2v-670.72c0-28.16 23.04-51.2 51.2-51.2h727.552c28.16 0 51.2 23.04 51.2 51.2v670.72c0 28.16-23.04 51.2-51.2 51.2z m0-722.944H148.992c-0.512 0-1.024 0.512-1.024 1.024V487.424h730.112v-467.968c0-1.024-1.024-1.536-1.536-1.536z"  horiz-adv-x="1024" />

    
    <glyph glyph-name="transportation-management" unicode="&#58911;" d="M303.104 607.744c8.192 8.192 8.192 22.016 0 30.208-8.192 8.192-22.016 8.192-30.208 0L179.712 545.28c-6.144-6.144-8.192-15.36-4.608-23.04 3.072-8.192 11.264-13.312 19.968-13.312 5.632 0 10.752 2.048 15.36 6.144l92.672 92.672zM418.816 580.096c8.192 8.192 8.192 22.016 0 30.208-8.192 8.192-22.016 8.192-30.208 0L209.92 431.616c-6.144-6.144-8.192-15.36-4.608-23.04 3.072-8.192 11.264-13.312 19.968-13.312 5.632 0 11.264 2.048 15.36 6.144l178.176 178.688zM925.696 243.712V431.104c0 5.12-1.536 9.728-4.608 13.312l-138.752 169.472c-4.096 5.12-10.24 7.68-16.384 7.68h-126.464V702.464c0 11.776-9.728 21.504-21.504 21.504h-506.88c-11.776 0-21.504-9.728-21.504-21.504V225.28c0-5.632 2.048-11.264 6.144-14.848 4.096-4.096 9.216-6.144 15.36-6.144h121.856c-6.656-14.336-10.24-30.208-10.24-46.592 0-62.464 50.688-113.152 113.152-113.152s113.152 50.688 113.152 113.152c0 16.896-3.584 33.28-10.752 47.616h224.768c-6.656-14.336-10.752-30.72-10.752-48.128 0-62.464 50.688-113.152 113.152-113.152s113.152 50.688 113.152 113.152c0 16.896-4.096 33.28-10.752 48.128h45.568c11.776 0 21.504 9.728 21.504 21.504-0.512 6.656-4.096 12.8-9.216 16.896z m-170.496 335.36l108.032-131.584h-152.576c-3.584 0-7.68-1.024-10.752-3.072-10.24-6.144-13.824-18.944-7.68-29.184 3.584-6.656 10.752-10.752 18.432-10.752h172.032v-157.184h-49.664c-18.944 14.336-42.496 22.528-67.584 22.528-25.6 0-49.152-8.192-68.096-22.528h-58.368V579.072h116.224z m-623.104 102.4h463.872v-433.664H403.456c-18.944 14.336-42.496 22.528-67.584 22.528-26.112 0-50.176-8.704-69.12-23.552H132.096V681.472z m203.264-594.944c-38.912 0-70.144 31.744-70.144 70.144 0 38.912 31.744 70.144 70.144 70.144s70.144-31.744 70.144-70.144c0.512-38.4-31.232-70.144-70.144-70.144z m430.08 0c-38.912 0-70.144 31.744-70.144 70.144 0 38.912 31.744 70.144 70.144 70.144 38.912 0 70.144-31.744 70.144-70.144 0.512-38.4-31.232-70.144-70.144-70.144z"  horiz-adv-x="1024" />

    
    <glyph glyph-name="s-books" unicode="&#58912;" d="M97 742.528C97 786.97 133.063 823 177.548 823h648.986c44.486 0 80.548-36.029 80.548-80.472v-558.71c0-44.443-36.062-80.472-80.548-80.472H211.712c-30.82 0-54.876-22.177-54.876-48.283 0-25.845 23.577-47.84 53.953-48.277l0.923-0.006h695.37c16.523 0 29.918-13.383 29.918-29.89 0-16.272-13.015-29.507-29.212-29.882l-0.706-0.008h-695.37C148.872-53 97-5.179 97 55.063c0 2.001 0.057 3.989 0.17 5.961a31.452 31.452 0 0 0-0.162 2.53L97 64.26V742.528z m669.699-326.489H237.384l-0.707-0.008c-16.197-0.375-29.211-13.61-29.211-29.881 0-16.343 13.128-29.622 29.423-29.886l0.495-0.004h529.315l0.706 0.008c16.197 0.375 29.211 13.61 29.211 29.882 0 16.507-13.394 29.89-29.917 29.89z m0 170.142H237.384l-0.707-0.008c-16.197-0.375-29.211-13.61-29.211-29.882 0-16.342 13.128-29.621 29.423-29.885l0.495-0.004h529.315l0.706 0.008c16.197 0.375 29.211 13.61 29.211 29.881 0 16.508-13.394 29.89-29.917 29.89z"  horiz-adv-x="1024" />

    
    <glyph glyph-name="s-kilometre" unicode="&#58913;" d="M512 482.304c16.384 0 29.184 13.312 29.184 29.696V614.4c0 15.872-13.312 29.184-29.184 29.184s-29.184-12.8-29.184-29.184v-102.912c0-15.872 12.8-29.184 29.184-29.184zM177.664 208.896h102.4c15.872 0 29.184 13.312 29.184 29.184s-12.8 29.184-29.184 29.184h-102.4c-15.872 0-29.184-12.8-29.184-29.184 0-15.872 12.8-29.184 29.184-29.184zM321.024 403.968c5.632-5.632 12.8-8.704 20.48-8.704 7.168 0 14.848 2.56 20.48 8.704 11.264 11.264 11.264 30.208 0 41.472L289.28 517.632c-11.264 11.264-30.208 11.264-41.472 0-11.264-11.264-11.264-30.208 0-41.472l73.216-72.192zM503.296 191.488c7.168 0 14.336 3.072 19.968 8.192l289.792 275.968c11.776 11.264 12.288 29.696 1.024 41.472s-29.696 12.288-41.472 1.024l-289.28-275.968c-11.776-11.264-12.288-29.696-1.024-41.472 5.632-6.144 13.312-9.216 20.992-9.216zM714.752 238.08c0-15.872 12.8-29.184 29.184-29.184h102.4c16.384 0 29.696 13.312 29.184 29.184 0 15.872-12.8 29.184-29.184 29.184h-102.4c-15.872 0-29.184-12.8-29.184-29.184zM958.464 280.064c0.512 1.536 0.512 3.584 0.512 5.12 0 246.272-200.704 446.976-446.976 446.976s-446.976-200.704-446.464-446.976v-220.16c0-15.872 12.8-29.184 29.184-29.184h837.632c14.848 1.536 26.624 14.336 26.624 29.184 0 2.048 0 3.584-0.512 5.12v209.92zM512 673.28c214.016 0 388.096-174.08 388.096-388.096V94.208H123.904v190.464 0.512c0 214.016 174.08 388.096 388.096 388.096z"  horiz-adv-x="1024" />

    
    <glyph glyph-name="special-events" unicode="&#58914;" d="M241.152 238.592h449.024c11.776 0 20.992 9.216 20.992 20.992s-9.216 20.992-20.992 20.992H241.152c-11.776 0-20.992-9.216-20.992-20.992s9.728-20.992 20.992-20.992zM782.848 167.936H241.152c-11.776 0-20.992-9.216-20.992-20.992s9.216-20.992 20.992-20.992h541.184c11.776 0 20.992 9.216 20.992 20.992s-9.216 20.992-20.48 20.992zM909.824 826.368c-13.824 13.824-32.256 21.504-51.712 21.504h-7.168c-26.112 0-50.688-14.848-65.536-40.448-7.168-12.288-19.968-19.456-33.792-19.456-11.776 0-23.04 5.12-30.208 14.336-24.064 29.184-55.808 45.568-89.6 45.568-33.28 0-65.024-16.384-89.088-45.568-7.68-9.216-18.432-14.336-30.208-14.336-11.776 0-23.04 5.12-30.208 14.336-24.064 29.184-55.808 45.568-89.088 45.568S327.68 832 303.616 802.816C295.936 793.6 285.184 788.48 273.408 788.48c-13.824 0-27.136 7.68-33.792 19.456-14.848 25.088-39.424 40.448-65.536 40.448h-7.68c-40.448 0-73.216-32.768-73.216-73.216v-772.096c0-40.448 32.768-73.216 73.216-73.216H174.08c26.112 0 50.688 14.848 65.536 40.448 7.168 12.288 19.968 19.456 33.792 19.456 11.776 0 23.04-5.12 30.208-14.336 24.064-29.184 55.808-45.568 89.088-45.568s65.024 16.384 89.088 45.568c7.68 9.216 18.432 14.336 30.208 14.336s23.04-5.12 30.208-14.336c24.064-29.184 55.808-45.568 89.6-45.568 33.28 0 65.024 16.384 89.088 45.568 7.68 9.216 18.432 14.336 30.208 14.336 13.824 0 27.136-7.68 33.792-19.456 14.848-25.088 39.424-40.448 65.536-40.448h7.168c40.448 0 73.216 32.768 73.216 73.216V774.656c0.512 19.456-6.656 37.888-20.992 51.712z m-19.456-824.32c0-17.92-14.336-32.256-32.256-32.256h-7.168c-11.776 0-22.528 7.168-30.208 19.968-14.336 24.576-40.96 39.936-69.12 39.936-24.064 0-46.592-10.752-61.952-29.184-16.384-19.456-36.864-30.72-57.856-30.72-20.992 0-41.472 10.752-57.344 30.72-15.36 18.432-37.888 29.184-61.952 29.184-24.576 0.512-47.104-10.24-62.464-29.184-16.384-19.456-36.352-30.72-57.344-30.72s-41.472 10.752-57.344 30.72c-15.36 18.432-37.888 29.184-61.952 29.184-28.16 0-54.784-15.36-69.12-39.936-7.68-12.8-18.432-19.968-30.208-19.968h-7.68c-17.92 0-32.256 14.336-32.256 32.256V774.656c0 17.92 14.336 32.256 32.256 32.256H174.08c11.776 0 22.528-7.168 30.208-19.968 14.336-24.576 40.96-39.936 69.12-39.936 24.064 0 46.592 10.752 61.952 29.184 16.384 19.456 36.352 30.72 57.344 30.72s41.472-10.752 57.344-30.72c15.36-18.432 37.888-29.184 61.952-29.184s46.592 10.752 61.952 29.184c16.384 19.456 36.864 30.72 57.856 30.72 20.992 0 41.472-10.752 57.344-30.72 15.36-18.432 37.888-29.184 61.952-29.184 28.16 0 54.784 15.36 69.12 39.936 7.68 12.8 18.432 19.968 30.208 19.968h7.168c8.704 0 16.896-3.584 23.04-9.728s9.728-14.336 9.728-23.04v-772.096zM512 454.656c35.84 0 65.024 29.184 65.024 65.024S547.84 584.704 512 584.704s-65.024-29.184-65.024-65.024S476.16 454.656 512 454.656z m0 99.328a34.304 34.304 0 1 0 0-68.608 34.304 34.304 0 0 0 0 68.608zM355.84 460.288h1.536c20.992 0 37.888-16.896 37.888-37.888 0-6.144-1.536-12.288-4.608-17.92-3.072-6.144-2.048-13.824 3.584-18.432 19.456-16.896 41.472-29.184 66.048-36.864 6.656-2.048 13.824 1.024 17.408 6.656 6.656 11.776 19.456 18.944 32.768 18.944 13.312 0 26.112-7.168 32.768-18.944 2.56-4.608 7.68-7.68 13.312-7.68 1.536 0 3.072 0 4.096 0.512 24.576 7.168 47.104 19.456 66.56 36.352 5.632 4.608 6.656 12.8 3.584 18.944-3.072 5.632-4.608 11.776-4.608 18.432 0 20.992 16.896 37.888 37.888 37.888h2.048c7.168-0.512 13.824 4.096 15.872 11.264 4.608 15.36 6.656 31.744 6.656 48.128 0 15.872-2.048 31.232-6.144 46.08-2.048 7.168-8.704 11.776-15.872 11.264h-2.56c-20.992 0-37.888 16.896-37.888 37.888 0 6.656 1.536 13.312 5.12 18.944 3.584 6.144 2.048 14.336-3.072 18.944-19.968 17.408-43.52 30.208-68.608 37.376-6.144 1.536-13.312-0.512-16.896-6.144-7.168-10.24-18.944-16.896-31.744-16.896s-24.576 6.144-31.744 16.896c-3.584 5.632-10.24 7.68-16.896 6.144-25.6-7.168-49.664-20.48-69.632-37.888-5.12-4.608-6.656-12.8-3.072-18.944 3.072-5.632 4.608-11.776 4.608-18.432 0-20.992-16.896-37.888-37.888-37.888h-1.536c-7.168 0.512-13.824-4.608-15.36-11.264-4.096-14.848-6.144-30.72-6.144-46.08 0-16.384 2.048-32.256 6.656-48.128a16.896 16.896 0 0 1 15.872-11.264z m11.776 87.04c33.28 4.608 58.88 33.792 58.88 68.096 0 7.168-1.024 14.336-3.584 21.504 12.288 9.216 25.6 16.384 39.936 21.504 12.8-13.312 30.72-20.992 49.152-20.992 18.944 0 36.352 7.68 49.152 20.992 13.824-5.12 27.136-11.776 38.912-20.992-2.56-7.168-3.584-14.336-3.584-22.016 0-34.816 26.112-64 59.904-68.096 1.536-9.216 2.56-18.432 2.56-27.648 0-9.728-1.024-19.456-3.072-29.184-33.792-4.608-59.904-33.28-59.904-68.096 0-7.168 1.024-14.336 3.072-20.992-11.264-8.192-23.552-14.848-36.352-19.968-12.8 14.848-32.256 24.064-52.224 24.064-19.968 0-38.912-8.704-51.712-23.552-12.8 5.12-25.088 11.776-36.352 19.968 2.048 6.656 3.072 13.312 3.072 19.968 0 34.304-25.088 62.976-58.368 68.096-2.048 9.728-3.072 19.456-3.072 29.184 1.024 9.728 1.536 18.944 3.584 28.16z"  horiz-adv-x="1024" />

    
    <glyph glyph-name="vehicle-information" unicode="&#58915;" d="M679.936 646.656v-167.936h48.128V646.656c0 39.936-32.256 72.192-72.192 72.192h-48.128V670.72h48.128c13.312 0 24.064-10.752 24.064-24.064zM308.224 622.592c19.968 0 35.84 15.872 35.84 35.84v71.68c0 19.968-15.872 35.84-35.84 35.84s-35.84-15.872-35.84-35.84v-71.68c0-19.456 15.872-35.84 35.84-35.84zM368.128 718.336h119.808v-48.128H368.128zM547.84 622.592c19.968 0 35.84 15.872 35.84 35.84v71.68c0 19.968-15.872 35.84-35.84 35.84s-35.84-15.872-35.84-35.84v-71.68c0-19.456 15.872-35.84 35.84-35.84zM176.128 119.296v527.36c0 13.312 10.752 24.064 24.064 24.064h48.128v48.128h-48.128c-39.936 0-71.68-32.256-71.68-72.192v-527.36c0-39.936 32.256-71.68 71.68-71.68h143.872v48.128H200.192c-13.312-0.512-24.064 10.24-24.064 23.552zM272.384 478.72H583.68c13.312 0 24.064 10.752 24.064 24.064s-10.752 24.064-24.064 24.064H272.384c-13.312 0-24.064-10.752-24.064-24.064s10.752-24.064 24.064-24.064zM344.064 358.912h-71.68c-13.312 0-24.064-10.752-24.064-24.064s10.752-24.064 24.064-24.064h71.68c13.312 0 24.064 10.752 24.064 24.064s-10.752 24.064-24.064 24.064zM894.464 229.376c-7.168 19.968-18.432 33.28-42.496 30.208-3.584-0.512-9.728 6.656-11.776 11.776-11.264 29.184-22.016 58.88-32.768 89.088-6.656 18.944-19.456 31.232-37.888 36.352-24.576 6.656-50.176 10.752-75.264 16.384-36.352 5.632-69.632 5.632-109.568 0-14.336-2.048-28.672-4.096-43.008-6.656-37.888-7.168-67.072-23.552-77.824-64.512-6.656-24.064-15.872-47.616-25.088-71.168-1.536-4.608-7.68-11.264-10.752-10.752-26.112 3.072-36.352-12.8-43.52-33.792-1.024-4.608-0.512-9.216 0-12.8 10.24-2.56 19.968-5.12 27.136-7.168l-1.536-113.664c0-20.48-1.024-40.96 0.512-60.928 0.512-9.216 4.096-24.064 9.216-27.648 3.584-5.12 71.168-5.12 83.968 0 5.632 2.048 8.704 31.744 13.312 49.664h247.296c6.144-16.896-5.632-37.376 13.312-49.664 5.632-4.096 78.336-4.096 81.92 1.536 3.584 2.048 8.192 15.36 8.704 24.064 1.024 48.128 0.512 96.256 0.512 144.384 0 10.752-2.56 20.992-3.584 31.232 9.216 2.56 18.944 5.12 29.184 8.192 1.024 3.584 2.048 9.728 0 15.872zM537.6 143.36c-2.048-5.632-9.728-10.24-16.384-11.776-8.704-2.048-18.432-2.56-27.136-2.56-13.312 1.536-26.624 1.536-39.936 4.608-16.896 3.584-21.504 16.384-16.384 38.912 3.584 15.36 15.36 16.384 26.624 12.8 22.016-7.168 43.008-15.872 64-25.6 4.608-3.072 10.24-12.8 9.216-16.384z m-65.536 108.544c12.288 34.816 23.04 67.584 35.84 98.816 2.56 6.144 11.776 11.264 18.944 13.312 16.896 4.096 34.816 8.192 52.224 8.192 53.248-0.512 105.984-2.048 159.232-4.608 22.016-1.024 36.352-12.288 42.496-34.816 7.168-26.112 16.384-52.224 26.112-80.896-112.128-24.064-221.184-23.552-334.848 0z m356.864-117.76c-13.824-3.072-28.672-3.584-40.448-5.12-13.312 1.024-24.064 1.024-34.816 3.072-12.8 2.56-16.896 17.92-5.632 23.552 24.576 11.776 50.688 21.504 76.8 29.696 10.752 3.072 17.92-5.632 17.92-17.408 1.024-13.312 5.12-29.696-13.824-33.792z"  horiz-adv-x="1024" />

    
    <glyph glyph-name="s-scan" unicode="&#58916;" d="M115.2 507.392c11.264 0 20.48 9.216 20.48 20.48V711.68c3.072 25.6 23.04 45.568 48.64 48.64h183.296c11.264 0 20.48 9.216 20.48 20.48s-9.216 20.48-20.48 20.48H184.32c-48.128-3.072-86.528-41.472-89.6-89.6v-184.32c0-11.264 9.216-19.968 20.48-19.968zM655.36 760.32h184.32c22.528 0 33.28-26.112 33.28-48.64v-184.32c0-11.264 9.216-20.48 20.48-20.48s20.48 9.216 20.48 20.48V711.68c0 45.056-29.184 89.6-74.24 89.6h-184.32c-11.264 0-20.48-9.216-20.48-20.48s9.216-20.48 20.48-20.48zM367.104 23.552H184.32c-22.528 0-48.64 10.752-48.64 33.28v184.32c0 11.264-9.216 20.48-20.48 20.48s-20.48-9.216-20.48-20.48v-184.32c0-45.056 44.544-74.24 89.6-74.24h183.296c11.264 0 20.48 9.216 20.48 20.48s-9.728 20.48-20.992 20.48zM893.44 261.632c-11.264 0-20.48-9.216-20.48-20.48v-184.32c2.56-15.872-8.192-30.72-24.064-33.28-3.072-0.512-6.144-0.512-9.216 0h-184.32c-11.264 0-20.48-9.216-20.48-20.48s9.216-20.48 20.48-20.48h184.32c38.4-3.072 71.68 26.112 74.24 64v194.56c0 11.264-9.216 20.48-20.48 20.48zM901.12 412.16H122.88c-11.264 0-20.48-9.216-20.48-20.48s9.216-20.48 20.48-20.48h778.24c11.264 0 20.48 9.216 20.48 20.48-0.512 11.776-9.216 20.48-20.48 20.48z"  horiz-adv-x="1024" />

    
    <glyph glyph-name="san-bao-dispute" unicode="&#58917;" d="M512 475.648c-40.96 0-74.24-33.28-74.24-74.24s33.28-74.24 74.24-74.24 74.24 33.28 74.24 74.24S552.96 475.648 512 475.648z m0-113.664c-21.504 0-39.424 17.408-39.424 39.424S490.496 440.32 512 440.32s39.424-17.408 39.424-39.424-17.92-38.912-39.424-38.912zM690.176 466.432h-3.072c-24.064 0-43.52 19.456-43.52 43.52 0 7.68 1.536 15.36 5.632 21.504 4.096 7.168 2.56 16.384-3.584 21.504-23.04 19.968-49.664 34.304-78.336 42.496-7.168 1.536-15.36-0.512-19.456-7.168-8.192-11.776-21.504-19.456-36.352-19.456s-28.16 7.168-36.352 19.456c-4.096 6.656-11.776 8.704-19.456 7.168-29.184-8.192-56.832-23.552-79.872-43.52-5.632-5.12-7.68-14.848-3.584-21.504 3.584-6.656 5.12-13.312 5.12-20.992 0-24.064-19.456-43.52-43.52-43.52h-1.536c-8.192 0.512-15.872-5.12-17.408-12.8-4.608-16.896-7.168-35.328-7.168-52.736 0-18.944 2.56-36.864 7.68-54.784 3.072-8.192 10.752-12.8 17.92-12.8h1.536c24.064 0 43.52-19.456 43.52-43.52 0-7.168-1.536-13.824-5.12-20.48-3.584-7.168-2.56-15.872 4.096-20.992 22.016-19.456 47.616-33.28 75.776-41.984 7.68-2.56 15.872 1.024 19.968 7.68 7.68 13.312 22.016 21.504 37.376 21.504s29.696-8.192 37.376-21.504c3.072-5.12 8.704-8.704 15.36-8.704 1.536 0 3.584 0 4.608 0.512 28.16 8.192 53.76 22.016 76.288 41.472 6.656 5.12 7.68 14.848 4.096 21.504-3.584 6.656-5.12 13.312-5.12 20.992 0 24.064 19.456 43.52 43.52 43.52h2.56c8.192-0.512 15.872 4.608 17.92 12.8 5.12 17.408 7.68 36.352 7.68 54.784 0 17.92-2.56 35.84-7.168 52.736-1.536 8.704-9.216 13.824-17.408 13.312z m-12.288-98.816c-38.4-5.12-68.608-37.888-68.608-77.824 0-8.192 1.024-16.384 3.584-24.064-12.8-9.216-27.136-16.896-41.472-23.04-14.848 16.896-36.864 27.648-59.904 27.648-23.04 0-44.544-9.728-59.392-27.136-14.848 5.632-28.672 13.312-41.472 23.04 2.56 7.68 3.584 15.36 3.584 23.04 0 39.424-28.672 72.192-66.56 77.824-2.56 11.264-3.584 22.016-3.584 33.28 1.024 11.264 1.536 21.504 4.096 32.256 37.888 5.12 67.584 38.4 67.584 77.824 0 8.192-1.024 16.384-4.096 24.576 13.824 10.752 29.184 18.944 45.568 24.576 14.848-15.36 35.328-24.064 56.32-24.064 21.504 0 41.472 8.704 56.32 24.064 15.872-5.632 31.232-13.312 44.544-24.064-3.072-8.192-4.096-16.384-4.096-25.088 0-39.936 29.696-73.216 68.608-77.824 1.536-10.752 3.072-20.992 3.072-31.744-0.512-10.752-2.048-22.016-4.096-33.28zM821.248 827.392H202.752c-34.816 0-63.488-30.208-63.488-67.072v-752.64c0-23.04 11.264-44.544 29.696-56.832 10.24-7.168 22.016-10.24 33.792-10.24 7.68 0 15.872 1.536 23.04 4.608l279.04 114.688c4.608 2.048 10.24 2.048 14.848 0l279.04-114.688c18.944-7.68 39.936-5.632 56.832 5.632 18.432 12.288 29.696 33.792 29.696 56.832v752.64c-0.512 36.864-28.672 67.072-64 67.072z m22.528-819.712c0-9.216-4.096-17.92-11.264-22.528-3.584-2.048-10.24-5.632-18.432-2.048l-279.04 114.688a59.904 59.904 0 0 1-46.08 0L209.92-16.896c-8.192-3.584-15.36 0-18.432 2.048-7.168 4.608-11.264 13.312-11.264 22.528v752.64c0 14.336 10.24 26.112 22.528 26.112h619.008c12.288 0 22.528-11.776 22.528-26.112v-752.64zM396.8 670.72h230.912c11.776 0 20.992 9.216 20.992 20.992s-9.216 20.992-20.992 20.992H396.8c-11.776 0-20.992-9.216-20.992-20.992s9.216-20.992 20.992-20.992z"  horiz-adv-x="1024" />

    
    <glyph glyph-name="s-plus" unicode="&#58918;" d="M896 426.496h-341.504V768c0 23.552-18.944 42.496-42.496 42.496s-42.496-18.944-42.496-42.496v-341.504H128c-23.552 0-42.496-18.944-42.496-42.496s18.944-42.496 42.496-42.496h341.504V0c0-23.552 18.944-42.496 42.496-42.496s42.496 18.944 42.496 42.496v341.504H896c23.552 0 42.496 18.944 42.496 42.496s-18.944 42.496-42.496 42.496z"  horiz-adv-x="1024" />

    
    <glyph glyph-name="s-news-2" unicode="&#58919;" d="M774.656 259.584h-2.048V401.408c0 70.144-27.648 135.68-77.312 185.856-31.744 31.744-69.12 53.76-110.592 66.048 7.168 12.8 11.776 28.16 11.776 44.032 0 48.128-39.424 87.552-87.552 87.552s-87.552-39.424-87.552-87.552c0-15.872 4.096-31.232 11.776-44.032-41.472-12.288-78.848-34.816-110.592-66.048-49.664-49.664-77.312-115.712-77.312-185.856v-142.336h-2.048c-39.424 0-71.168-32.256-71.168-71.168 0-39.424 32.256-71.168 71.168-71.168h120.832v-6.144c0-79.36 65.024-144.896 144.896-144.896 79.36 0 144.896 64.512 144.896 144.896v6.144h120.832c39.424 0 71.168 32.256 71.168 71.168 0 39.424-31.744 71.68-71.168 71.68zM508.928 723.968c14.336 0 26.112-11.776 26.112-26.112s-11.776-26.112-26.112-26.112-26.112 11.776-26.112 26.112 11.776 26.112 26.112 26.112z m0-696.832c-46.592 0-84.48 37.888-84.48 84.48 0 2.048 0 4.096 0.512 6.144h167.424c0-2.048 0.512-4.096 0.512-6.144 0.512-47.104-37.376-84.48-83.968-84.48z"  horiz-adv-x="1024" />

    
    <glyph glyph-name="s-claim" unicode="&#58920;" d="M544.256 348.16h120.32v-88.576h-120.32zM821.248 799.232H173.056c-17.92 0-32.256-14.336-32.256-32.256V-51.2c0-13.312 13.312-23.04 26.112-18.432l330.24 117.76 330.24-117.76c12.8-4.608 26.112 5.12 26.112 18.432V766.976c0 17.92-14.336 32.256-32.256 32.256zM599.04 674.816c5.632-12.8 16.384-31.744 31.744-56.832-12.8-5.632-24.576-11.264-35.84-16.896-7.168 13.824-17.408 32.256-31.744 54.784 10.24 3.072 22.016 9.216 35.84 18.944zM483.328 599.04c16.896-1.536 57.856-2.048 122.368-2.048 64.512 0 105.472 0.512 122.368 2.048v-37.888c-16.896 1.536-57.856 2.048-122.368 2.048-63.488 0-103.936-0.512-122.368-2.048V599.04z m99.328-117.76c-13.824-4.096-27.648-9.728-39.936-16.896-5.632 19.456-15.36 39.424-29.696 58.88 12.8 5.632 24.576 12.8 35.84 20.992 9.728-16.896 20.992-37.888 33.792-62.976zM264.192 626.688h185.344c-1.536-32.256-2.048-81.408-2.048-147.456s0.512-118.272 2.048-156.16H409.6V592.896H304.128v-278.016h-39.936c1.536 40.96 2.048 94.72 2.048 162.304 0 67.072-0.512 117.248-2.048 149.504z m20.992-455.68c-9.728 15.36-22.528 26.112-37.888 31.744 24.064 16.896 43.008 35.84 56.832 56.832 13.824 20.992 24.064 46.592 29.696 76.8 5.632 30.208 8.192 63.488 7.168 100.352-0.512 36.352-1.536 76.8-3.072 120.32 13.824-1.536 28.672-3.072 44.032-4.096-3.072-16.896-4.096-40.96-3.072-71.68 0.512-30.72 0.512-66.048-1.024-105.472-1.536-39.424-8.704-75.264-22.016-107.52-13.312-32.256-36.864-64.512-70.656-97.28z m151.552 27.648c-13.824 20.992-34.304 45.568-60.928 73.728 9.728 7.168 18.944 15.36 27.648 25.088 26.624-26.624 49.152-52.224 67.584-75.776-14.336-6.656-25.6-14.848-34.304-23.04z m269.824-14.848h-41.984v41.984h-120.32v-48.64h-39.936c1.536 16.896 2.048 48.64 2.048 94.72 0 47.616-0.512 83.456-2.048 107.52H706.56c-1.536-20.992-2.048-53.248-2.048-96.768 0-43.008 1.024-76.288 2.048-98.816z m40.448 236.032c-19.456 1.536-66.048 2.048-139.264 2.048-71.68 0-118.784-0.512-141.312-2.048v37.888c24.064-3.072 76.8-4.096 158.208-4.096 12.8 33.792 23.04 68.096 31.744 103.424 15.36-7.168 31.744-11.776 48.64-14.848-7.168-9.728-20.48-39.424-39.936-88.576 35.328 0 62.464 1.536 82.432 4.096V419.84z"  horiz-adv-x="1024" />

    
    <glyph glyph-name="s-pdi" unicode="&#58921;" d="M909.824 821.76c-13.824 13.824-32.256 21.504-51.712 21.504h-7.168c-26.112 0-50.688-14.848-65.536-40.448-7.168-12.288-19.968-19.456-33.792-19.456-11.776 0-23.04 5.12-30.208 14.336-24.064 29.184-55.808 45.568-89.6 45.568-33.28 0-65.024-16.384-89.088-45.568-7.68-9.216-18.432-14.336-30.208-14.336s-23.04 5.12-30.208 14.336c-24.064 29.184-55.808 45.568-89.088 45.568S327.68 827.392 303.616 798.208c-7.68-9.216-18.432-14.336-30.208-14.336-13.824 0-27.136 7.68-33.792 19.456-14.848 25.088-39.424 40.448-65.536 40.448h-7.68c-40.448 0-73.216-32.768-73.216-73.216v-772.096c0-40.448 32.768-73.216 73.216-73.216H174.08c26.112 0 50.688 14.848 65.536 40.448 7.168 12.288 19.968 19.456 33.792 19.456 11.776 0 23.04-5.12 30.208-14.336 24.064-29.184 55.808-45.568 89.088-45.568s65.024 16.384 89.088 45.568c7.68 9.216 18.432 14.336 30.208 14.336 11.776 0 23.04-5.12 30.208-14.336 24.064-29.184 55.808-45.568 89.6-45.568 33.28 0 65.024 16.384 89.088 45.568 7.68 9.216 18.432 14.336 30.208 14.336 13.824 0 27.136-7.68 33.792-19.456 14.848-25.088 39.424-40.448 65.536-40.448h7.168c40.448 0 73.216 32.768 73.216 73.216V770.048c0.512 19.456-6.656 37.888-20.992 51.712zM450.048-4.096c-16.384-19.456-36.352-30.72-57.344-30.72s-41.472 10.752-57.344 30.72c-15.36 18.432-37.888 29.184-61.952 29.184-28.16 0-54.784-15.36-69.12-39.936-7.68-12.8-18.432-19.968-30.208-19.968h-7.68c-17.92 0-32.256 14.336-32.256 32.256V770.048c0 17.92 14.336 32.256 32.256 32.256H174.08c11.776 0 22.528-7.168 30.208-19.968 14.336-24.576 40.96-39.936 69.12-39.936 24.064 0 46.592 10.752 61.952 29.184 16.384 19.456 36.352 30.72 57.344 30.72s41.472-10.752 57.344-30.72c15.36-18.432 37.888-29.184 61.952-29.184 24.064 0 46.592 10.752 61.952 29.184 16.384 19.456 36.864 30.72 57.856 30.72 20.992 0 41.472-10.752 57.344-30.72 15.36-18.432 37.888-29.184 61.952-29.184 28.16 0 54.784 15.36 69.12 39.936 7.68 12.8 18.432 19.968 30.208 19.968h7.168c8.704 0 16.896-3.584 23.04-9.728s9.728-14.336 9.728-23.04v-772.096c0-17.92-14.336-32.256-32.256-32.256h-7.168c-11.776 0-22.528 7.168-30.208 19.968-14.336 24.576-40.96 39.936-69.12 39.936-24.064 0-46.592-10.752-61.952-29.184-16.384-19.456-36.864-30.72-57.856-30.72-20.992 0-41.472 10.752-57.344 30.72-15.36 18.432-37.888 29.184-61.952 29.184-24.576 0.512-47.104-10.24-62.464-29.184zM418.816 496.128c-8.704 6.144-19.456 10.24-31.744 12.288-8.704 1.536-21.504 2.56-37.888 2.56H252.416v-253.44h42.496v98.816h57.344c35.84 0 60.928 7.68 75.264 23.04 13.824 15.36 20.992 33.792 20.992 55.808 0 12.8-2.56 24.576-7.68 35.328-6.144 10.752-13.312 19.456-22.016 25.6z m-66.56-100.864H294.912v76.8h56.832c17.408 0 25.088-1.024 28.672-2.048 7.168-2.048 12.8-6.144 17.408-12.288 4.608-6.656 6.656-13.824 6.656-23.04 0-12.8-3.584-22.016-11.264-28.672-7.68-7.68-21.504-10.752-40.96-10.752zM611.84 261.632c11.776 3.072 22.016 7.168 30.72 12.8 8.704 5.632 16.384 13.312 23.552 23.552 7.168 9.728 12.8 22.016 17.408 36.864 4.608 14.848 6.656 31.744 6.656 50.688 0 22.016-3.072 41.984-9.728 59.392-6.656 17.408-16.896 32.256-30.208 43.52-10.24 8.704-23.04 15.36-37.888 18.432-10.24 2.56-25.088 3.584-44.544 3.584H478.72v-253.44h92.672c15.36 0.512 28.672 2.048 40.448 4.608z m-90.624 34.816V471.552h46.08c18.432 0 31.744-1.536 39.936-4.608 10.752-4.096 19.968-12.8 27.648-25.088 7.68-12.8 11.776-31.744 11.776-55.808 0-17.92-2.048-32.768-6.144-45.056-4.096-12.288-9.728-21.504-16.384-28.672-4.608-4.608-11.264-8.704-19.968-11.264-8.704-2.56-20.48-4.096-36.352-4.096h-46.592zM729.088 510.464h42.496v-253.44h-42.496z"  horiz-adv-x="1024" />

    


  </font>
</defs>
</svg>
